<svg width="176" height="152" viewBox="0 0 176 152" fill="none" xmlns="http://www.w3.org/2000/svg">
<rect width="176" height="152" rx="15" fill="#FF5959"/>
<path d="M54.72 57H74.988V52.284H64.44L70.992 46.092C72.048 45.132 72.9 44.064 73.548 42.888C74.196 41.712 74.52 40.452 74.52 39.108C74.52 38.196 74.328 37.284 73.944 36.372C73.584 35.46 73.02 34.632 72.252 33.888C71.508 33.12 70.56 32.508 69.408 32.052C68.28 31.572 66.96 31.332 65.448 31.332C63.408 31.332 61.68 31.764 60.264 32.628C58.872 33.468 57.816 34.608 57.096 36.048C56.376 37.488 56.016 39.108 56.016 40.908H61.056C61.056 39.9 61.224 39.012 61.56 38.244C61.92 37.476 62.412 36.888 63.036 36.48C63.684 36.048 64.452 35.832 65.34 35.832C65.964 35.832 66.516 35.94 66.996 36.156C67.476 36.348 67.884 36.612 68.22 36.948C68.556 37.284 68.808 37.668 68.976 38.1C69.144 38.532 69.228 38.976 69.228 39.432C69.228 40.08 69.108 40.704 68.868 41.304C68.628 41.904 68.28 42.504 67.824 43.104C67.368 43.704 66.816 44.352 66.168 45.048L54.72 57ZM97.5206 48.864C97.5206 47.136 97.1606 45.66 96.4406 44.436C95.7446 43.188 94.8206 42.228 93.6686 41.556C92.5166 40.884 91.2566 40.548 89.8886 40.548C89.1446 40.548 88.4126 40.62 87.6926 40.764C86.9966 40.884 86.3366 41.112 85.7126 41.448L87.2246 36.264H97.1246V31.8H83.4086L79.9526 45.984C80.8166 45.504 81.6326 45.144 82.4006 44.904C83.1926 44.64 83.9606 44.46 84.7046 44.364C85.4486 44.244 86.1566 44.184 86.8286 44.184C87.7406 44.184 88.5806 44.352 89.3486 44.688C90.1406 45 90.7646 45.468 91.2206 46.092C91.7006 46.716 91.9406 47.484 91.9406 48.396C91.9406 49.332 91.7366 50.124 91.3286 50.772C90.9206 51.396 90.3326 51.876 89.5646 52.212C88.8206 52.548 87.9086 52.716 86.8286 52.716C86.1326 52.716 85.4006 52.584 84.6326 52.32C83.8646 52.032 83.1206 51.648 82.4006 51.168C81.7046 50.688 81.0566 50.148 80.4566 49.548L78.0446 53.544C78.7406 54.24 79.5446 54.888 80.4566 55.488C81.3686 56.064 82.4246 56.532 83.6246 56.892C84.8486 57.252 86.2286 57.432 87.7646 57.432C88.9886 57.432 90.1766 57.264 91.3286 56.928C92.4806 56.592 93.5246 56.076 94.4606 55.38C95.3966 54.684 96.1406 53.796 96.6926 52.716C97.2446 51.636 97.5206 50.352 97.5206 48.864ZM105.409 44.4C105.409 43.128 105.529 41.976 105.769 40.944C106.009 39.888 106.357 38.988 106.813 38.244C107.269 37.476 107.809 36.888 108.433 36.48C109.057 36.072 109.753 35.868 110.521 35.868C111.313 35.868 112.021 36.072 112.645 36.48C113.269 36.888 113.809 37.476 114.265 38.244C114.721 38.988 115.069 39.888 115.309 40.944C115.549 41.976 115.669 43.128 115.669 44.4C115.669 45.672 115.549 46.836 115.309 47.892C115.069 48.924 114.721 49.824 114.265 50.592C113.809 51.336 113.269 51.912 112.645 52.32C112.021 52.728 111.313 52.932 110.521 52.932C109.753 52.932 109.057 52.728 108.433 52.32C107.809 51.912 107.269 51.336 106.813 50.592C106.357 49.824 106.009 48.924 105.769 47.892C105.529 46.836 105.409 45.672 105.409 44.4ZM100.405 44.4C100.405 47.064 100.825 49.368 101.665 51.312C102.529 53.256 103.717 54.768 105.229 55.848C106.765 56.904 108.529 57.432 110.521 57.432C112.585 57.432 114.373 56.904 115.885 55.848C117.397 54.768 118.573 53.256 119.413 51.312C120.253 49.368 120.673 47.064 120.673 44.4C120.673 41.736 120.253 39.432 119.413 37.488C118.573 35.544 117.397 34.044 115.885 32.988C114.373 31.908 112.585 31.368 110.521 31.368C108.529 31.368 106.765 31.908 105.229 32.988C103.717 34.044 102.529 35.544 101.665 37.488C100.825 39.432 100.405 41.736 100.405 44.4Z" fill="black"/>
<path d="M61.2688 88.56L63.8448 95.52H66.4528L61.2688 84.24L56.0848 95.52H58.6927L61.2688 88.56ZM65.2048 96V97.76H67.4288V94H55.1088V97.76H57.3328V96H65.2048ZM69.8683 92.784H76.4603C76.4816 92.6667 76.4923 92.56 76.4923 92.464C76.4923 92.368 76.4923 92.288 76.4923 92.224C76.4923 91.4453 76.3429 90.7787 76.0443 90.224C75.7456 89.6693 75.3083 89.2427 74.7323 88.944C74.1669 88.6347 73.4789 88.48 72.6683 88.48C71.9323 88.48 71.2869 88.608 70.7323 88.864C70.1776 89.12 69.7349 89.4773 69.4043 89.936C69.0736 90.3947 68.8549 90.928 68.7483 91.536C68.7269 91.664 68.7109 91.792 68.7003 91.92C68.6896 92.048 68.6842 92.1813 68.6842 92.32C68.6842 93.056 68.8389 93.7173 69.1483 94.304C69.4683 94.88 69.9269 95.3333 70.5243 95.664C71.1216 95.9947 71.8309 96.16 72.6523 96.16C73.3349 96.16 73.9109 96.0747 74.3803 95.904C74.8603 95.7333 75.2656 95.4933 75.5963 95.184C75.9269 94.864 76.2149 94.496 76.4603 94.08L74.6523 93.52C74.5243 93.7333 74.3643 93.92 74.1723 94.08C73.9803 94.24 73.7616 94.3627 73.5163 94.448C73.2709 94.5333 72.9883 94.576 72.6683 94.576C72.3056 94.576 71.9803 94.5013 71.6923 94.352C71.4043 94.192 71.1749 93.9467 71.0043 93.616C70.8443 93.2747 70.7643 92.8427 70.7643 92.32L70.7963 91.904C70.7963 91.4987 70.8763 91.1467 71.0363 90.848C71.1963 90.5493 71.4149 90.3253 71.6923 90.176C71.9696 90.016 72.2843 89.936 72.6363 89.936C72.9776 89.936 73.2603 90 73.4843 90.128C73.7083 90.256 73.8843 90.4373 74.0123 90.672C74.1403 90.9067 74.2256 91.184 74.2683 91.504H69.8683V92.784ZM77.1425 88.64V90.384H82.0385V88.64H77.1425ZM78.5985 88.96V96H80.5985V88.96H78.5985ZM84.4826 92.32C84.4826 91.904 84.5786 91.536 84.7706 91.216C84.9626 90.896 85.2186 90.6453 85.5386 90.464C85.8693 90.272 86.232 90.176 86.6266 90.176C86.9253 90.176 87.224 90.224 87.5226 90.32C87.8213 90.416 88.0933 90.5547 88.3386 90.736C88.5946 90.9067 88.7866 91.1093 88.9146 91.344V89.216C88.6586 88.992 88.3226 88.816 87.9066 88.688C87.5013 88.5493 87.0266 88.48 86.4826 88.48C85.704 88.48 85 88.64 84.3706 88.96C83.752 89.28 83.2613 89.728 82.8986 90.304C82.5466 90.88 82.3706 91.552 82.3706 92.32C82.3706 93.0773 82.5466 93.7493 82.8986 94.336C83.2613 94.912 83.752 95.36 84.3706 95.68C85 96 85.704 96.16 86.4826 96.16C87.0266 96.16 87.5013 96.096 87.9066 95.968C88.3226 95.8293 88.6586 95.6427 88.9146 95.408V93.28C88.7866 93.5147 88.6 93.7227 88.3546 93.904C88.12 94.0747 87.8533 94.2133 87.5546 94.32C87.256 94.416 86.9466 94.464 86.6266 94.464C86.232 94.464 85.8693 94.3733 85.5386 94.192C85.2186 94.0107 84.9626 93.76 84.7706 93.44C84.5786 93.12 84.4826 92.7467 84.4826 92.32ZM90.6948 88.64V96H92.6948V88.64H90.6948ZM95.3988 88.64L92.2308 91.68L95.7348 96H98.1988L94.7108 91.68L97.8788 88.64H95.3988ZM106.346 90.464L106.426 88.08L99.4176 94.176L99.3376 96.56L106.346 90.464ZM101.338 88.64H99.3376V96.56L101.338 94.464V88.64ZM106.426 88.08L104.426 90.176V96H106.426V88.08ZM115.58 90.464L115.66 88.08L108.652 94.176L108.572 96.56L115.58 90.464ZM110.572 88.64H108.572V96.56L110.572 94.464V88.64ZM115.66 88.08L113.66 90.176V96H115.66V88.08ZM109.612 84.88C109.612 85.2853 109.708 85.6693 109.9 86.032C110.103 86.384 110.396 86.6667 110.78 86.88C111.175 87.0827 111.649 87.184 112.204 87.184C112.769 87.184 113.244 87.0827 113.628 86.88C114.012 86.6667 114.305 86.384 114.508 86.032C114.711 85.6693 114.812 85.2853 114.812 84.88H113.356C113.356 85.0507 113.313 85.216 113.228 85.376C113.153 85.5253 113.031 85.6533 112.86 85.76C112.689 85.856 112.471 85.904 112.204 85.904C111.948 85.904 111.735 85.856 111.564 85.76C111.393 85.6533 111.265 85.5253 111.18 85.376C111.095 85.216 111.052 85.0507 111.052 84.88H109.612ZM71.6512 113.224C72.0139 113.224 72.3445 113.309 72.6432 113.48C72.9419 113.651 73.1765 113.896 73.3472 114.216C73.5179 114.536 73.6032 114.904 73.6032 115.32C73.6032 115.736 73.5179 116.104 73.3472 116.424C73.1765 116.733 72.9419 116.979 72.6432 117.16C72.3445 117.331 72.0139 117.416 71.6512 117.416C71.2779 117.416 70.9419 117.331 70.6432 117.16C70.3445 116.979 70.1045 116.733 69.9232 116.424C69.7525 116.104 69.6672 115.736 69.6672 115.32L67.4272 114.36C67.4272 115.416 67.6085 116.301 67.9712 117.016C68.3445 117.731 68.8459 118.269 69.4752 118.632C70.1152 118.984 70.8405 119.16 71.6512 119.16C72.4619 119.16 73.1712 118.995 73.7792 118.664C74.3979 118.333 74.8779 117.88 75.2192 117.304C75.5605 116.717 75.7312 116.056 75.7312 115.32C75.7312 114.573 75.5605 113.912 75.2192 113.336C74.8779 112.76 74.4139 112.307 73.8272 111.976C73.2405 111.645 72.5579 111.48 71.7792 111.48L71.6512 113.224ZM68.7552 115.32H69.6672C69.6672 114.979 69.7259 114.68 69.8432 114.424C69.9605 114.168 70.1152 113.949 70.3072 113.768C70.4992 113.587 70.7125 113.453 70.9472 113.368C71.1819 113.272 71.4165 113.224 71.6512 113.224L71.7792 111.48C71.3205 111.48 70.9045 111.571 70.5312 111.752C70.1685 111.923 69.8485 112.173 69.5712 112.504C69.3045 112.835 69.1019 113.24 68.9632 113.72C68.8245 114.189 68.7552 114.723 68.7552 115.32ZM67.4272 114.36L69.5072 115.272L69.2352 113.56C69.2352 113.027 69.3045 112.515 69.4432 112.024C69.5925 111.533 69.8485 111.091 70.2112 110.696C70.5845 110.301 71.0965 109.987 71.7472 109.752C72.3339 109.539 72.8565 109.272 73.3152 108.952C73.7845 108.632 74.1632 108.264 74.4512 107.848C74.7392 107.432 74.9099 106.989 74.9632 106.52H72.9632C72.8885 106.904 72.6592 107.251 72.2752 107.56C71.9019 107.859 71.3525 108.152 70.6272 108.44C69.7845 108.76 69.1285 109.192 68.6592 109.736C68.2005 110.28 67.8805 110.936 67.6992 111.704C67.5179 112.472 67.4272 113.357 67.4272 114.36ZM84.3691 113.464L84.4491 111.08L77.4411 117.176L77.3611 119.56L84.3691 113.464ZM79.3611 111.64H77.3611V119.56L79.3611 117.464V111.64ZM84.4491 111.08L82.4491 113.176V119H84.4491V111.08ZM93.8914 111.64H86.8514V116.024C86.8514 116.483 86.7341 116.787 86.4994 116.936C86.2754 117.075 86.0034 117.144 85.6834 117.144V119C86.4621 119 87.0808 118.909 87.5394 118.728C88.0088 118.536 88.3448 118.253 88.5474 117.88C88.7501 117.496 88.8514 117.016 88.8514 116.44V113.528H91.8914V119H93.8914V111.64ZM96.8761 115.784H103.468C103.489 115.667 103.5 115.56 103.5 115.464C103.5 115.368 103.5 115.288 103.5 115.224C103.5 114.445 103.351 113.779 103.052 113.224C102.753 112.669 102.316 112.243 101.74 111.944C101.175 111.635 100.487 111.48 99.6761 111.48C98.9401 111.48 98.2947 111.608 97.7401 111.864C97.1854 112.12 96.7427 112.477 96.4121 112.936C96.0814 113.395 95.8627 113.928 95.7561 114.536C95.7347 114.664 95.7187 114.792 95.7081 114.92C95.6974 115.048 95.6921 115.181 95.6921 115.32C95.6921 116.056 95.8467 116.717 96.1561 117.304C96.4761 117.88 96.9347 118.333 97.5321 118.664C98.1294 118.995 98.8387 119.16 99.6601 119.16C100.343 119.16 100.919 119.075 101.388 118.904C101.868 118.733 102.273 118.493 102.604 118.184C102.935 117.864 103.223 117.496 103.468 117.08L101.66 116.52C101.532 116.733 101.372 116.92 101.18 117.08C100.988 117.24 100.769 117.363 100.524 117.448C100.279 117.533 99.9961 117.576 99.6761 117.576C99.3134 117.576 98.9881 117.501 98.7001 117.352C98.4121 117.192 98.1827 116.947 98.0121 116.616C97.8521 116.275 97.7721 115.843 97.7721 115.32L97.8041 114.904C97.8041 114.499 97.8841 114.147 98.0441 113.848C98.2041 113.549 98.4227 113.325 98.7001 113.176C98.9774 113.016 99.2921 112.936 99.6441 112.936C99.9854 112.936 100.268 113 100.492 113.128C100.716 113.256 100.892 113.437 101.02 113.672C101.148 113.907 101.233 114.184 101.276 114.504H96.8761V115.784ZM104.15 111.64V113.384H109.046V111.64H104.15ZM105.606 111.96V119H107.606V111.96H105.606Z" fill="black"/>
</svg>
