<svg width="176" height="152" viewBox="0 0 176 152" fill="none" xmlns="http://www.w3.org/2000/svg">
<rect width="176" height="152" rx="15" fill="#FF5959"/>
<path d="M29.2483 91.32H31.2643C32.011 91.32 32.667 91.2187 33.2323 91.016C33.7976 90.8027 34.2403 90.4933 34.5603 90.088C34.8803 89.6827 35.0403 89.1973 35.0403 88.632C35.0403 87.992 34.8803 87.464 34.5603 87.048C34.2403 86.632 33.7976 86.3227 33.2323 86.12C32.667 85.9067 32.011 85.8 31.2643 85.8H27.5363V97H31.5043C32.3363 97 33.067 96.888 33.6963 96.664C34.3256 96.44 34.811 96.0933 35.1523 95.624C35.5043 95.1547 35.6803 94.552 35.6803 93.816C35.6803 93.2613 35.563 92.7867 35.3283 92.392C35.1043 91.9973 34.795 91.6773 34.4003 91.432C34.0056 91.176 33.5576 90.9893 33.0563 90.872C32.5656 90.7547 32.0483 90.696 31.5043 90.696H29.2483V91.944H31.2963C31.5843 91.944 31.851 91.976 32.0963 92.04C32.3416 92.0933 32.555 92.1893 32.7363 92.328C32.9283 92.456 33.0723 92.6213 33.1683 92.824C33.275 93.016 33.3283 93.2507 33.3283 93.528C33.3283 93.912 33.2376 94.2267 33.0563 94.472C32.8856 94.7173 32.6456 94.8987 32.3363 95.016C32.027 95.1227 31.6803 95.176 31.2963 95.176H29.8243V87.624H31.0563C31.5576 87.624 31.9523 87.736 32.2403 87.96C32.539 88.184 32.6883 88.5093 32.6883 88.936C32.6883 89.2133 32.619 89.4533 32.4803 89.656C32.3523 89.8587 32.1656 90.0133 31.9203 90.12C31.675 90.2267 31.387 90.28 31.0563 90.28H29.2483V91.32ZM40.6061 93.32C41.6087 93.352 42.3607 93.2027 42.8621 92.872C43.3741 92.5307 43.6301 92.0933 43.6301 91.56C43.6301 91.1653 43.5021 90.8133 43.2461 90.504C43.0007 90.184 42.6594 89.9333 42.2221 89.752C41.7954 89.5707 41.3047 89.48 40.7501 89.48C40.1527 89.48 39.6301 89.5867 39.1821 89.8C38.7341 90.0133 38.3821 90.312 38.1261 90.696C37.8807 91.0693 37.7581 91.5013 37.7581 91.992H39.6781C39.6781 91.8213 39.7207 91.6667 39.8061 91.528C39.8914 91.3787 40.0141 91.2613 40.1741 91.176C40.3341 91.0907 40.5314 91.048 40.7661 91.048C41.0434 91.048 41.2674 91.1173 41.4381 91.256C41.6087 91.384 41.6941 91.5653 41.6941 91.8C41.6941 92.0133 41.6087 92.1947 41.4381 92.344C41.2674 92.4933 40.9901 92.568 40.6061 92.568V93.32ZM40.7181 97.16C41.3261 97.16 41.8754 97.0693 42.3661 96.888C42.8567 96.696 43.2407 96.4293 43.5181 96.088C43.8061 95.736 43.9501 95.32 43.9501 94.84C43.9501 94.1787 43.6514 93.672 43.0541 93.32C42.4674 92.968 41.6514 92.808 40.6061 92.84V93.72C40.9047 93.72 41.1554 93.7573 41.3581 93.832C41.5714 93.9067 41.7314 94.0187 41.8381 94.168C41.9447 94.3067 41.9981 94.4773 41.9981 94.68C41.9981 94.872 41.9447 95.0427 41.8381 95.192C41.7314 95.3307 41.5821 95.4373 41.3901 95.512C41.1981 95.5867 40.9687 95.624 40.7021 95.624C40.3181 95.624 40.0141 95.528 39.7901 95.336C39.5767 95.1333 39.4327 94.8667 39.3581 94.536H37.3741C37.4594 95.3253 37.7901 95.96 38.3661 96.44C38.9421 96.92 39.7261 97.16 40.7181 97.16ZM47.7201 100.52V89.64H45.6401V100.52H47.7201ZM53.7681 93.32C53.7681 92.4773 53.6027 91.768 53.2721 91.192C52.9414 90.6053 52.5041 90.1627 51.9601 89.864C51.4267 89.5653 50.8507 89.416 50.2321 89.416C49.6027 89.416 49.0534 89.576 48.5841 89.896C48.1254 90.216 47.7681 90.6693 47.5121 91.256C47.2667 91.832 47.1441 92.52 47.1441 93.32C47.1441 94.1093 47.2667 94.7973 47.5121 95.384C47.7681 95.9707 48.1254 96.424 48.5841 96.744C49.0534 97.064 49.6027 97.224 50.2321 97.224C50.8507 97.224 51.4267 97.0747 51.9601 96.776C52.5041 96.4773 52.9414 96.0347 53.2721 95.448C53.6027 94.8613 53.7681 94.152 53.7681 93.32ZM51.6241 93.32C51.6241 93.7573 51.5334 94.1307 51.3521 94.44C51.1707 94.7493 50.9254 94.984 50.6161 95.144C50.3174 95.304 49.9867 95.384 49.6241 95.384C49.3147 95.384 49.0107 95.3093 48.7121 95.16C48.4241 95 48.1841 94.7653 47.9921 94.456C47.8107 94.1467 47.7201 93.768 47.7201 93.32C47.7201 92.872 47.8107 92.4933 47.9921 92.184C48.1841 91.8747 48.4241 91.6453 48.7121 91.496C49.0107 91.336 49.3147 91.256 49.6241 91.256C49.9867 91.256 50.3174 91.336 50.6161 91.496C50.9254 91.656 51.1707 91.8907 51.3521 92.2C51.5334 92.5093 51.6241 92.8827 51.6241 93.32ZM54.8171 93.32C54.8171 94.0773 54.9931 94.7493 55.3451 95.336C55.7077 95.912 56.1931 96.36 56.8011 96.68C57.4197 97 58.1184 97.16 58.8971 97.16C59.6757 97.16 60.3691 97 60.9771 96.68C61.5957 96.36 62.0811 95.912 62.4331 95.336C62.7957 94.7493 62.9771 94.0773 62.9771 93.32C62.9771 92.552 62.7957 91.88 62.4331 91.304C62.0811 90.728 61.5957 90.28 60.9771 89.96C60.3691 89.64 59.6757 89.48 58.8971 89.48C58.1184 89.48 57.4197 89.64 56.8011 89.96C56.1931 90.28 55.7077 90.728 55.3451 91.304C54.9931 91.88 54.8171 92.552 54.8171 93.32ZM56.9291 93.32C56.9291 92.904 57.0144 92.536 57.1851 92.216C57.3664 91.896 57.6064 91.6507 57.9051 91.48C58.2037 91.3093 58.5344 91.224 58.8971 91.224C59.2597 91.224 59.5904 91.3093 59.8891 91.48C60.1877 91.6507 60.4224 91.896 60.5931 92.216C60.7744 92.536 60.8651 92.904 60.8651 93.32C60.8651 93.736 60.7744 94.104 60.5931 94.424C60.4224 94.7333 60.1877 94.9787 59.8891 95.16C59.5904 95.3307 59.2597 95.416 58.8971 95.416C58.5344 95.416 58.2037 95.3307 57.9051 95.16C57.6064 94.9787 57.3664 94.7333 57.1851 94.424C57.0144 94.104 56.9291 93.736 56.9291 93.32ZM66.0998 93.32C66.0998 92.904 66.1958 92.536 66.3878 92.216C66.5798 91.896 66.8358 91.6453 67.1558 91.464C67.4865 91.272 67.8491 91.176 68.2438 91.176C68.5425 91.176 68.8411 91.224 69.1398 91.32C69.4385 91.416 69.7105 91.5547 69.9558 91.736C70.2118 91.9067 70.4038 92.1093 70.5318 92.344V90.216C70.2758 89.992 69.9398 89.816 69.5238 89.688C69.1185 89.5493 68.6438 89.48 68.0998 89.48C67.3211 89.48 66.6171 89.64 65.9878 89.96C65.3691 90.28 64.8785 90.728 64.5158 91.304C64.1638 91.88 63.9878 92.552 63.9878 93.32C63.9878 94.0773 64.1638 94.7493 64.5158 95.336C64.8785 95.912 65.3691 96.36 65.9878 96.68C66.6171 97 67.3211 97.16 68.0998 97.16C68.6438 97.16 69.1185 97.096 69.5238 96.968C69.9398 96.8293 70.2758 96.6427 70.5318 96.408V94.28C70.4038 94.5147 70.2171 94.7227 69.9718 94.904C69.7371 95.0747 69.4705 95.2133 69.1718 95.32C68.8731 95.416 68.5638 95.464 68.2438 95.464C67.8491 95.464 67.4865 95.3733 67.1558 95.192C66.8358 95.0107 66.5798 94.76 66.3878 94.44C66.1958 94.12 66.0998 93.7467 66.0998 93.32ZM79.7039 89.64H72.6639V94.024C72.6639 94.4827 72.5466 94.7867 72.3119 94.936C72.0879 95.0747 71.8159 95.144 71.4959 95.144V97C72.2746 97 72.8933 96.9093 73.3519 96.728C73.8213 96.536 74.1573 96.2533 74.3599 95.88C74.5626 95.496 74.6639 95.016 74.6639 94.44V91.528H77.7039V97H79.7039V89.64ZM89.5046 89.64V97H91.5686V89.64H89.5046ZM82.0006 89.64V97H84.0806V89.64H82.0006ZM83.5526 93.64H85.5366C85.8672 93.64 86.1179 93.72 86.2886 93.88C86.4699 94.0293 86.5606 94.2373 86.5606 94.504C86.5606 94.6853 86.5179 94.84 86.4326 94.968C86.3579 95.096 86.2459 95.1973 86.0966 95.272C85.9472 95.336 85.7606 95.368 85.5366 95.368H83.5526V97H85.8406C86.3526 97 86.8112 96.904 87.2166 96.712C87.6219 96.52 87.9419 96.2373 88.1766 95.864C88.4112 95.48 88.5286 95.0267 88.5286 94.504C88.5286 93.7147 88.2672 93.1387 87.7446 92.776C87.2326 92.4027 86.5979 92.216 85.8406 92.216H83.5526V93.64ZM100.666 91.464L100.746 89.08L93.7379 95.176L93.6579 97.56L100.666 91.464ZM95.6579 89.64H93.6579V97.56L95.6579 95.464V89.64ZM100.746 89.08L98.7459 91.176V97H100.746V89.08ZM94.6979 85.88C94.6979 86.2853 94.7939 86.6693 94.9859 87.032C95.1886 87.384 95.4819 87.6667 95.8659 87.88C96.2606 88.0827 96.7353 88.184 97.2899 88.184C97.8553 88.184 98.3299 88.0827 98.7139 87.88C99.0979 87.6667 99.3913 87.384 99.5939 87.032C99.7966 86.6693 99.8979 86.2853 99.8979 85.88H98.4419C98.4419 86.0507 98.3993 86.216 98.3139 86.376C98.2393 86.5253 98.1166 86.6533 97.9459 86.76C97.7753 86.856 97.5566 86.904 97.2899 86.904C97.0339 86.904 96.8206 86.856 96.6499 86.76C96.4793 86.6533 96.3513 86.5253 96.2659 86.376C96.1806 86.216 96.1379 86.0507 96.1379 85.88H94.6979ZM111.401 91.224C111.764 91.224 112.095 91.3093 112.393 91.48C112.692 91.6507 112.927 91.896 113.097 92.216C113.268 92.536 113.353 92.904 113.353 93.32C113.353 93.736 113.268 94.104 113.097 94.424C112.927 94.7333 112.692 94.9787 112.393 95.16C112.095 95.3307 111.764 95.416 111.401 95.416C111.028 95.416 110.692 95.3307 110.393 95.16C110.095 94.9787 109.855 94.7333 109.673 94.424C109.503 94.104 109.417 93.736 109.417 93.32L107.177 92.36C107.177 93.416 107.359 94.3013 107.721 95.016C108.095 95.7307 108.596 96.2693 109.225 96.632C109.865 96.984 110.591 97.16 111.401 97.16C112.212 97.16 112.921 96.9947 113.529 96.664C114.148 96.3333 114.628 95.88 114.969 95.304C115.311 94.7173 115.481 94.056 115.481 93.32C115.481 92.5733 115.311 91.912 114.969 91.336C114.628 90.76 114.164 90.3067 113.577 89.976C112.991 89.6453 112.308 89.48 111.529 89.48L111.401 91.224ZM108.505 93.32H109.417C109.417 92.9787 109.476 92.68 109.593 92.424C109.711 92.168 109.865 91.9493 110.057 91.768C110.249 91.5867 110.463 91.4533 110.697 91.368C110.932 91.272 111.167 91.224 111.401 91.224L111.529 89.48C111.071 89.48 110.655 89.5707 110.281 89.752C109.919 89.9227 109.599 90.1733 109.321 90.504C109.055 90.8347 108.852 91.24 108.713 91.72C108.575 92.1893 108.505 92.7227 108.505 93.32ZM107.177 92.36L109.257 93.272L108.985 91.56C108.985 91.0267 109.055 90.5147 109.193 90.024C109.343 89.5333 109.599 89.0907 109.961 88.696C110.335 88.3013 110.847 87.9867 111.497 87.752C112.084 87.5387 112.607 87.272 113.065 86.952C113.535 86.632 113.913 86.264 114.201 85.848C114.489 85.432 114.66 84.9893 114.713 84.52H112.713C112.639 84.904 112.409 85.2507 112.025 85.56C111.652 85.8587 111.103 86.152 110.377 86.44C109.535 86.76 108.879 87.192 108.409 87.736C107.951 88.28 107.631 88.936 107.449 89.704C107.268 90.472 107.177 91.3573 107.177 92.36ZM124.119 91.464L124.199 89.08L117.191 95.176L117.111 97.56L124.119 91.464ZM119.111 89.64H117.111V97.56L119.111 95.464V89.64ZM124.199 89.08L122.199 91.176V97H124.199V89.08ZM133.641 89.64H126.601V94.024C126.601 94.4827 126.484 94.7867 126.249 94.936C126.025 95.0747 125.753 95.144 125.433 95.144V97C126.212 97 126.831 96.9093 127.289 96.728C127.759 96.536 128.095 96.2533 128.297 95.88C128.5 95.496 128.601 95.016 128.601 94.44V91.528H131.641V97H133.641V89.64ZM136.626 93.784H143.218C143.239 93.6667 143.25 93.56 143.25 93.464C143.25 93.368 143.25 93.288 143.25 93.224C143.25 92.4453 143.101 91.7787 142.802 91.224C142.503 90.6693 142.066 90.2427 141.49 89.944C140.925 89.6347 140.237 89.48 139.426 89.48C138.69 89.48 138.045 89.608 137.49 89.864C136.935 90.12 136.493 90.4773 136.162 90.936C135.831 91.3947 135.613 91.928 135.506 92.536C135.485 92.664 135.469 92.792 135.458 92.92C135.447 93.048 135.442 93.1813 135.442 93.32C135.442 94.056 135.597 94.7173 135.906 95.304C136.226 95.88 136.685 96.3333 137.282 96.664C137.879 96.9947 138.589 97.16 139.41 97.16C140.093 97.16 140.669 97.0747 141.138 96.904C141.618 96.7333 142.023 96.4933 142.354 96.184C142.685 95.864 142.973 95.496 143.218 95.08L141.41 94.52C141.282 94.7333 141.122 94.92 140.93 95.08C140.738 95.24 140.519 95.3627 140.274 95.448C140.029 95.5333 139.746 95.576 139.426 95.576C139.063 95.576 138.738 95.5013 138.45 95.352C138.162 95.192 137.933 94.9467 137.762 94.616C137.602 94.2747 137.522 93.8427 137.522 93.32L137.554 92.904C137.554 92.4987 137.634 92.1467 137.794 91.848C137.954 91.5493 138.173 91.3253 138.45 91.176C138.727 91.016 139.042 90.936 139.394 90.936C139.735 90.936 140.018 91 140.242 91.128C140.466 91.256 140.642 91.4373 140.77 91.672C140.898 91.9067 140.983 92.184 141.026 92.504H136.626V93.784ZM143.9 89.64V91.384H148.796V89.64H143.9ZM145.356 89.96V97H147.356V89.96H145.356ZM35.5024 107.52C34.8624 108.715 34.3824 109.979 34.0624 111.312C33.7531 112.645 33.5984 113.995 33.5984 115.36C33.5984 116.715 33.7531 118.059 34.0624 119.392C34.3824 120.725 34.8624 121.995 35.5024 123.2H37.3904C36.8358 121.995 36.4144 120.725 36.1264 119.392C35.8384 118.059 35.6944 116.715 35.6944 115.36C35.6944 113.995 35.8384 112.645 36.1264 111.312C36.4144 109.979 36.8358 108.715 37.3904 107.52H35.5024ZM40.2873 116.32C40.2873 115.904 40.3833 115.536 40.5753 115.216C40.7673 114.896 41.0233 114.645 41.3433 114.464C41.674 114.272 42.0366 114.176 42.4313 114.176C42.73 114.176 43.0286 114.224 43.3273 114.32C43.626 114.416 43.898 114.555 44.1433 114.736C44.3993 114.907 44.5913 115.109 44.7193 115.344V113.216C44.4633 112.992 44.1273 112.816 43.7113 112.688C43.306 112.549 42.8313 112.48 42.2873 112.48C41.5086 112.48 40.8046 112.64 40.1753 112.96C39.5566 113.28 39.066 113.728 38.7033 114.304C38.3513 114.88 38.1753 115.552 38.1753 116.32C38.1753 117.077 38.3513 117.749 38.7033 118.336C39.066 118.912 39.5566 119.36 40.1753 119.68C40.8046 120 41.5086 120.16 42.2873 120.16C42.8313 120.16 43.306 120.096 43.7113 119.968C44.1273 119.829 44.4633 119.643 44.7193 119.408V117.28C44.5913 117.515 44.4046 117.723 44.1593 117.904C43.9246 118.075 43.658 118.213 43.3593 118.32C43.0606 118.416 42.7513 118.464 42.4313 118.464C42.0366 118.464 41.674 118.373 41.3433 118.192C41.0233 118.011 40.7673 117.76 40.5753 117.44C40.3833 117.12 40.2873 116.747 40.2873 116.32ZM45.6034 112.64V114.384H50.4994V112.64H45.6034ZM47.0594 112.96V120H49.0594V112.96H47.0594ZM53.0819 117.808C53.0819 117.584 53.1353 117.392 53.2419 117.232C53.3593 117.072 53.5299 116.944 53.7539 116.848C53.9779 116.752 54.2499 116.704 54.5699 116.704C55.0073 116.704 55.3859 116.757 55.7059 116.864C56.0259 116.971 56.3353 117.136 56.6339 117.36V116.352C56.5379 116.235 56.3726 116.112 56.1379 115.984C55.9033 115.856 55.6153 115.744 55.2739 115.648C54.9326 115.552 54.5646 115.504 54.1699 115.504C53.5299 115.504 52.9699 115.6 52.4899 115.792C52.0206 115.984 51.6526 116.261 51.3859 116.624C51.1299 116.976 51.0019 117.403 51.0019 117.904C51.0019 118.395 51.1139 118.811 51.3379 119.152C51.5726 119.483 51.8873 119.733 52.2819 119.904C52.6766 120.075 53.1246 120.16 53.6259 120.16C54.1379 120.16 54.5966 120.075 55.0019 119.904C55.4179 119.723 55.7486 119.467 55.9939 119.136C56.2393 118.795 56.3619 118.389 56.3619 117.92L56.1059 117.056C56.1059 117.461 56.0259 117.787 55.8659 118.032C55.7059 118.277 55.4873 118.453 55.2099 118.56C54.9326 118.667 54.6286 118.72 54.2979 118.72C54.0739 118.72 53.8659 118.688 53.6739 118.624C53.4926 118.549 53.3486 118.448 53.2419 118.32C53.1353 118.181 53.0819 118.011 53.0819 117.808ZM52.4259 114.736C52.5433 114.661 52.7139 114.571 52.9379 114.464C53.1726 114.357 53.4393 114.267 53.7379 114.192C54.0473 114.107 54.3779 114.064 54.7299 114.064C55.1353 114.064 55.4659 114.16 55.7219 114.352C55.9779 114.533 56.1059 114.789 56.1059 115.12V120H58.1059V114.784C58.1059 114.283 57.9673 113.861 57.6899 113.52C57.4126 113.168 57.0286 112.901 56.5379 112.72C56.0579 112.539 55.4979 112.448 54.8579 112.448C54.1966 112.448 53.5939 112.544 53.0499 112.736C52.5059 112.917 52.0473 113.109 51.6739 113.312L52.4259 114.736ZM62.0638 123.52V112.64H59.9838V123.52H62.0638ZM68.1118 116.32C68.1118 115.477 67.9465 114.768 67.6158 114.192C67.2851 113.605 66.8478 113.163 66.3038 112.864C65.7705 112.565 65.1945 112.416 64.5758 112.416C63.9465 112.416 63.3971 112.576 62.9278 112.896C62.4691 113.216 62.1118 113.669 61.8558 114.256C61.6105 114.832 61.4878 115.52 61.4878 116.32C61.4878 117.109 61.6105 117.797 61.8558 118.384C62.1118 118.971 62.4691 119.424 62.9278 119.744C63.3971 120.064 63.9465 120.224 64.5758 120.224C65.1945 120.224 65.7705 120.075 66.3038 119.776C66.8478 119.477 67.2851 119.035 67.6158 118.448C67.9465 117.861 68.1118 117.152 68.1118 116.32ZM65.9678 116.32C65.9678 116.757 65.8771 117.131 65.6958 117.44C65.5145 117.749 65.2691 117.984 64.9598 118.144C64.6611 118.304 64.3305 118.384 63.9678 118.384C63.6585 118.384 63.3545 118.309 63.0558 118.16C62.7678 118 62.5278 117.765 62.3358 117.456C62.1545 117.147 62.0638 116.768 62.0638 116.32C62.0638 115.872 62.1545 115.493 62.3358 115.184C62.5278 114.875 62.7678 114.645 63.0558 114.496C63.3545 114.336 63.6585 114.256 63.9678 114.256C64.3305 114.256 64.6611 114.336 64.9598 114.496C65.2691 114.656 65.5145 114.891 65.6958 115.2C65.8771 115.509 65.9678 115.883 65.9678 116.32ZM76.1848 118.256V112.64H74.1848V118.256H71.6568V112.64H69.6568V120H80.7128V112.64H78.7128V118.256H76.1848ZM83.4542 116.784H90.0462C90.0675 116.667 90.0782 116.56 90.0782 116.464C90.0782 116.368 90.0782 116.288 90.0782 116.224C90.0782 115.445 89.9289 114.779 89.6302 114.224C89.3315 113.669 88.8942 113.243 88.3182 112.944C87.7529 112.635 87.0649 112.48 86.2542 112.48C85.5182 112.48 84.8729 112.608 84.3182 112.864C83.7635 113.12 83.3209 113.477 82.9902 113.936C82.6595 114.395 82.4409 114.928 82.3342 115.536C82.3129 115.664 82.2969 115.792 82.2862 115.92C82.2755 116.048 82.2702 116.181 82.2702 116.32C82.2702 117.056 82.4249 117.717 82.7342 118.304C83.0542 118.88 83.5129 119.333 84.1102 119.664C84.7075 119.995 85.4169 120.16 86.2382 120.16C86.9209 120.16 87.4969 120.075 87.9662 119.904C88.4462 119.733 88.8515 119.493 89.1822 119.184C89.5129 118.864 89.8009 118.496 90.0462 118.08L88.2382 117.52C88.1102 117.733 87.9502 117.92 87.7582 118.08C87.5662 118.24 87.3475 118.363 87.1022 118.448C86.8569 118.533 86.5742 118.576 86.2542 118.576C85.8915 118.576 85.5662 118.501 85.2782 118.352C84.9902 118.192 84.7609 117.947 84.5902 117.616C84.4302 117.275 84.3502 116.843 84.3502 116.32L84.3822 115.904C84.3822 115.499 84.4622 115.147 84.6222 114.848C84.7822 114.549 85.0009 114.325 85.2782 114.176C85.5555 114.016 85.8702 113.936 86.2222 113.936C86.5635 113.936 86.8462 114 87.0702 114.128C87.2942 114.256 87.4702 114.437 87.5982 114.672C87.7262 114.907 87.8115 115.184 87.8542 115.504H83.4542V116.784ZM96.5813 111.712L99.2693 111.008V120H101.493V108.608L96.5813 109.648V111.712ZM103.561 117.936H113.289V115.984H111.001L110.729 116.224H106.729L109.369 112.448V117.008L109.177 117.184V120H111.529V108.8H109.977L103.561 117.936ZM127.063 112.64H120.023V117.024C120.023 117.483 119.906 117.787 119.671 117.936C119.447 118.075 119.175 118.144 118.855 118.144V120C119.634 120 120.253 119.909 120.711 119.728C121.181 119.536 121.517 119.253 121.719 118.88C121.922 118.496 122.023 118.016 122.023 117.44V114.528H125.063V120H127.063V112.64ZM130.048 116.784H136.64C136.661 116.667 136.672 116.56 136.672 116.464C136.672 116.368 136.672 116.288 136.672 116.224C136.672 115.445 136.523 114.779 136.224 114.224C135.925 113.669 135.488 113.243 134.912 112.944C134.347 112.635 133.659 112.48 132.848 112.48C132.112 112.48 131.467 112.608 130.912 112.864C130.357 113.12 129.915 113.477 129.584 113.936C129.253 114.395 129.035 114.928 128.928 115.536C128.907 115.664 128.891 115.792 128.88 115.92C128.869 116.048 128.864 116.181 128.864 116.32C128.864 117.056 129.019 117.717 129.328 118.304C129.648 118.88 130.107 119.333 130.704 119.664C131.301 119.995 132.011 120.16 132.832 120.16C133.515 120.16 134.091 120.075 134.56 119.904C135.04 119.733 135.445 119.493 135.776 119.184C136.107 118.864 136.395 118.496 136.64 118.08L134.832 117.52C134.704 117.733 134.544 117.92 134.352 118.08C134.16 118.24 133.941 118.363 133.696 118.448C133.451 118.533 133.168 118.576 132.848 118.576C132.485 118.576 132.16 118.501 131.872 118.352C131.584 118.192 131.355 117.947 131.184 117.616C131.024 117.275 130.944 116.843 130.944 116.32L130.976 115.904C130.976 115.499 131.056 115.147 131.216 114.848C131.376 114.549 131.595 114.325 131.872 114.176C132.149 114.016 132.464 113.936 132.816 113.936C133.157 113.936 133.44 114 133.664 114.128C133.888 114.256 134.064 114.437 134.192 114.672C134.32 114.907 134.405 115.184 134.448 115.504H130.048V116.784ZM137.322 112.64V114.384H142.218V112.64H137.322ZM138.778 112.96V120H140.778V112.96H138.778ZM144.497 123.2C145.137 121.995 145.611 120.725 145.921 119.392C146.241 118.059 146.401 116.715 146.401 115.36C146.401 113.995 146.241 112.645 145.921 111.312C145.611 109.979 145.137 108.715 144.497 107.52H142.609C143.174 108.715 143.601 109.979 143.889 111.312C144.177 112.645 144.321 113.995 144.321 115.36C144.321 116.715 144.177 118.059 143.889 119.392C143.601 120.725 143.174 121.995 142.609 123.2H144.497Z" fill="black"/>
<path d="M58.556 38.352L64.604 36.768V57H69.608V31.368L58.556 33.708V38.352ZM80.1276 44.4C80.1276 43.128 80.2476 41.976 80.4876 40.944C80.7276 39.888 81.0756 38.988 81.5316 38.244C81.9876 37.476 82.5276 36.888 83.1516 36.48C83.7756 36.072 84.4716 35.868 85.2396 35.868C86.0316 35.868 86.7396 36.072 87.3636 36.48C87.9876 36.888 88.5276 37.476 88.9836 38.244C89.4396 38.988 89.7876 39.888 90.0276 40.944C90.2676 41.976 90.3876 43.128 90.3876 44.4C90.3876 45.672 90.2676 46.836 90.0276 47.892C89.7876 48.924 89.4396 49.824 88.9836 50.592C88.5276 51.336 87.9876 51.912 87.3636 52.32C86.7396 52.728 86.0316 52.932 85.2396 52.932C84.4716 52.932 83.7756 52.728 83.1516 52.32C82.5276 51.912 81.9876 51.336 81.5316 50.592C81.0756 49.824 80.7276 48.924 80.4876 47.892C80.2476 46.836 80.1276 45.672 80.1276 44.4ZM75.1236 44.4C75.1236 47.064 75.5436 49.368 76.3836 51.312C77.2476 53.256 78.4356 54.768 79.9476 55.848C81.4836 56.904 83.2476 57.432 85.2396 57.432C87.3036 57.432 89.0916 56.904 90.6036 55.848C92.1156 54.768 93.2916 53.256 94.1316 51.312C94.9716 49.368 95.3916 47.064 95.3916 44.4C95.3916 41.736 94.9716 39.432 94.1316 37.488C93.2916 35.544 92.1156 34.044 90.6036 32.988C89.0916 31.908 87.3036 31.368 85.2396 31.368C83.2476 31.368 81.4836 31.908 79.9476 32.988C78.4356 34.044 77.2476 35.544 76.3836 37.488C75.5436 39.432 75.1236 41.736 75.1236 44.4ZM103.26 44.4C103.26 43.128 103.38 41.976 103.62 40.944C103.86 39.888 104.208 38.988 104.664 38.244C105.12 37.476 105.66 36.888 106.284 36.48C106.908 36.072 107.604 35.868 108.372 35.868C109.164 35.868 109.872 36.072 110.496 36.48C111.12 36.888 111.66 37.476 112.116 38.244C112.572 38.988 112.92 39.888 113.16 40.944C113.4 41.976 113.52 43.128 113.52 44.4C113.52 45.672 113.4 46.836 113.16 47.892C112.92 48.924 112.572 49.824 112.116 50.592C111.66 51.336 111.12 51.912 110.496 52.32C109.872 52.728 109.164 52.932 108.372 52.932C107.604 52.932 106.908 52.728 106.284 52.32C105.66 51.912 105.12 51.336 104.664 50.592C104.208 49.824 103.86 48.924 103.62 47.892C103.38 46.836 103.26 45.672 103.26 44.4ZM98.2564 44.4C98.2564 47.064 98.6764 49.368 99.5164 51.312C100.38 53.256 101.568 54.768 103.08 55.848C104.616 56.904 106.38 57.432 108.372 57.432C110.436 57.432 112.224 56.904 113.736 55.848C115.248 54.768 116.424 53.256 117.264 51.312C118.104 49.368 118.524 47.064 118.524 44.4C118.524 41.736 118.104 39.432 117.264 37.488C116.424 35.544 115.248 34.044 113.736 32.988C112.224 31.908 110.436 31.368 108.372 31.368C106.38 31.368 104.616 31.908 103.08 32.988C101.568 34.044 100.38 35.544 99.5164 37.488C98.6764 39.432 98.2564 41.736 98.2564 44.4Z" fill="black"/>
</svg>
