<svg width="286" height="91" viewBox="0 0 286 91" fill="none" xmlns="http://www.w3.org/2000/svg">
<path fill-rule="evenodd" clip-rule="evenodd" d="M283.689 49.1382L283.124 49.8789L282.475 50.6136L281.744 51.3413L280.934 52.0613L280.048 52.7728L279.088 53.4751L278.058 54.1675L276.961 54.8496L275.801 55.5206L274.58 56.1802L273.304 56.8279L271.975 57.4635L270.6 58.0866L269.182 58.6973L267.728 59.2954L266.243 59.8811L264.733 60.4547L263.203 61.0165L261.661 61.5669L260.112 62.1065L258.561 62.636L257.016 63.1562L255.48 63.6679L253.961 64.1722L252.463 64.6701L250.992 65.1627L249.551 65.6512L248.145 66.1369L246.778 66.6211L245.453 67.105L244.173 67.59L242.939 68.0773L241.754 68.5682L240.618 69.0638L239.53 69.5653L238.49 70.0734L237.497 70.5893L236.549 71.1135L235.643 71.6468L234.776 72.1896L233.945 72.7423L233.146 73.3049L232.374 73.8776L231.624 74.4601L230.892 75.0522L230.171 75.6532L229.457 76.2626L228.743 76.8794L228.025 77.5027L227.295 78.1312L226.549 78.7637L225.78 79.3987L224.983 80.0346L224.154 80.6697L223.286 81.3022L222.375 81.9301L221.416 82.5516L220.407 83.1645L219.342 83.7668L218.219 84.3565L217.036 84.9314L215.789 85.4895L214.478 86.0286L213.101 86.547L211.658 87.0426L210.149 87.5135L208.574 87.9582L206.934 88.3749L205.23 88.7622L203.465 89.1187L201.641 89.4434L199.76 89.7352L197.827 89.9933L195.844 90.217L193.816 90.406L191.746 90.56L189.639 90.6789L187.5 90.763L185.333 90.8126L183.143 90.8283L180.936 90.8108L178.715 90.761L176.487 90.6802L174.255 90.5696L172.025 90.4308L169.801 90.2654L167.588 90.0756L165.39 89.8632L163.211 89.6307L161.054 89.3803L158.924 89.1147L156.822 88.8363L154.752 88.5479L152.715 88.2521L150.714 87.9515L148.749 87.6488L146.821 87.3467L144.931 87.0475L143.078 86.7539L141.261 86.468L139.48 86.192L137.733 85.928L136.018 85.6779L134.333 85.4432L132.675 85.2255L131.042 85.0262L129.432 84.8462L127.84 84.6866L126.263 84.5479L124.699 84.4306L123.143 84.3348L121.592 84.2606L120.043 84.2077L118.493 84.1756L116.938 84.1635L115.375 84.1705L113.802 84.1954L112.216 84.2369L110.614 84.2934L108.996 84.3631L107.358 84.4443L105.7 84.5347L104.022 84.6323L102.322 84.7349L100.601 84.8399L98.8597 84.9451L97.0986 85.0479L95.3193 85.1459L93.5236 85.2366L91.7139 85.3176L89.8926 85.3863L88.063 85.4406L86.2284 85.478L84.3927 85.4965L82.5598 85.494L80.734 85.4687L78.92 85.4188L77.1224 85.3428L75.346 85.2392L73.5957 85.107L71.8765 84.9451L70.1932 84.7528L68.5507 84.5295L66.9537 84.275L65.4067 83.9892L63.9139 83.6722L62.4793 83.3244L61.1066 82.9464L59.799 82.5389L58.5595 82.1031L57.3903 81.6399L56.2936 81.1509L55.2706 80.6376L54.3222 80.1017L53.4488 79.5449L52.6502 78.9692L51.9255 78.3767L51.2736 77.7694L50.693 77.1492L50.1819 76.5183L49.738 75.8784L49.359 75.2316L49.0421 74.5797L48.7845 73.9244L48.5827 73.2675L48.4335 72.6106L48.3333 71.9553L48.2782 71.3029L48.2646 70.655L48.2884 70.0126L48.3458 69.377L48.4329 68.7491L48.5457 68.1299L48.6807 67.5201L48.8342 66.9203L49.0028 66.331L49.183 65.7528L49.3713 65.1859L49.5643 64.6308L49.7582 64.0876L49.9495 63.5567L50.1346 63.038L50.3099 62.5318L50.472 62.038L50.6172 61.5565L50.7421 61.0873L50.8435 60.63L50.9181 60.1846L50.9626 59.7505L50.9742 59.3276L50.95 58.9152L50.8872 58.513L50.7835 58.1202L50.6365 57.7364L50.4441 57.3608L50.2044 56.9927L49.9159 56.6314L49.577 56.2761L49.1868 55.9259L48.7442 55.5799L48.2488 55.2372L47.7002 54.8971L47.0983 54.5584L46.4434 54.2203L45.736 53.8818L44.977 53.5421L44.1674 53.2001L43.3085 52.8549L42.402 52.5057L41.4497 52.1515L40.4536 51.7915L39.4162 51.4248L38.3398 51.0508L37.2273 50.6686L36.0815 50.2775L34.9055 49.877L33.7024 49.4663L32.4757 49.0449L31.2288 48.6124L29.9652 48.1682L28.6886 47.7121L27.4026 47.2436L26.111 46.7626L24.8176 46.2689L23.5262 45.7622L22.2405 45.2425L20.9643 44.7097L19.7013 44.164L18.4552 43.6055L17.2297 43.0341L16.0281 42.4503L14.8536 41.8541L13.7088 41.2459L12.5962 40.6258L11.5179 39.9943L10.476 39.3517L9.47238 38.6981L8.50878 38.0341L7.58696 37.3601L6.70867 36.6763L5.8757 35.9832L5.08993 35.2814L4.35336 34.5713L3.66812 33.8535L3.03656 33.1287L2.46124 32.3976L1.94497 31.661L1.49083 30.9197L1.1021 30.1749L0.782016 29.4276L0.53355 28.6788L0.359409 27.9297L0.262014 27.1816L0.243482 26.4355L0.305612 25.6927L0.449871 24.9543L0.677388 24.2215L0.988938 23.4955L1.38495 22.7774L1.86548 22.0682L2.43025 21.3692L3.07862 20.6811L3.80958 20.005L4.62182 19.3418L5.51366 18.6922L6.48316 18.0568L7.52807 17.4364L8.64587 16.8315L9.83379 16.2424L11.0889 15.6696L12.4079 15.1132L13.7876 14.5733L15.2244 14.0501L16.7147 13.5434L18.2549 13.053L19.8412 12.5787L21.4699 12.12L23.1372 11.6767L24.8395 11.248L26.5732 10.8334L28.3347 10.4322L30.1207 10.0437L31.928 9.6671L33.7536 9.30159L35.5945 8.94633L37.4484 8.60046L39.3128 8.26312L41.1855 7.93347L43.0648 7.61068L44.9491 7.29396L46.8371 6.98254L48.7277 6.67574L50.62 6.37289L52.5137 6.07345L54.4083 5.77692L56.3039 5.4829L58.2005 5.1911L60.0986 4.90133L61.9986 4.61348L63.9012 4.32759L65.8073 4.04379L67.7177 3.76232L69.6334 3.48354L71.5556 3.20797L73.4854 2.93639L75.4243 2.6698L77.3736 2.40945L79.3348 2.15679L81.309 1.91344L83.2974 1.68116L85.3009 1.46185L87.3199 1.25747L89.3549 1.07003L91.4058 0.901576L93.4722 0.754114L95.5532 0.629601L97.6478 0.529904L99.7544 0.45676L101.871 0.411748L103.996 0.396251L106.125 0.411423L108.258 0.458167L110.389 0.537178L112.517 0.648999L114.638 0.794022L116.748 0.972474L118.844 1.18441L120.923 1.42971L122.98 1.70808L125.014 2.01902L127.019 2.36187L128.993 2.73578L130.933 3.1397L132.836 3.57244L134.698 4.03261L136.519 4.51866L138.294 5.02889L140.023 5.56145L141.703 6.11436L143.334 6.68553L144.915 7.27275L146.445 7.87373L147.924 8.48608L149.352 9.10737L150.73 9.73515L152.06 10.3669L153.343 11.0001L154.581 11.6323L155.776 12.2611L156.932 12.8839L158.051 13.4985L159.136 14.1027L160.193 14.6942L161.225 15.271L162.236 15.8313L163.23 16.3733L164.214 16.8953L165.191 17.396L166.167 17.8741L167.147 18.3287L168.135 18.7587L169.138 19.1637L170.159 19.5432L171.204 19.8969L172.277 20.2249L173.383 20.5274L174.526 20.8049L175.709 21.0579L176.936 21.2874L178.21 21.4943L179.533 21.6798L180.908 21.8454L182.336 21.9927L183.818 22.1232L185.354 22.2389L186.945 22.3417L188.589 22.4336L190.286 22.5166L192.035 22.5927L193.834 22.6637L195.683 22.7314L197.578 22.7977L199.518 22.8642L201.5 22.9326L203.524 23.0045L205.585 23.0814L207.68 23.1647L209.808 23.2559L211.965 23.3563L214.148 23.4671L216.353 23.5894L218.578 23.7243L220.819 23.8727L223.074 24.0355L225.338 24.2133L227.611 24.4068L229.888 24.6165L232.166 24.843L234.444 25.0868L236.716 25.3484L238.98 25.6282L241.232 25.9265L243.469 26.2438L245.686 26.5802L247.881 26.9361L250.048 27.3117L252.185 27.707L254.286 28.1221L256.349 28.5571L258.369 29.0119L260.341 29.4863L262.263 29.9802L264.129 30.4932L265.937 31.0252L267.683 31.5757L269.362 32.1443L270.971 32.7304L272.508 33.3334L273.968 33.9528L275.349 34.5877L276.647 35.2375L277.861 35.9014L278.988 36.5785L280.025 37.2679L280.972 37.9686L281.825 38.6798L282.583 39.4003L283.246 40.1292L283.813 40.8654L284.282 41.6078L284.654 42.3554L284.929 43.1071L285.106 43.8617L285.186 44.6183L285.17 45.3756L285.058 46.1327L284.853 46.8885L284.555 47.642L284.166 48.3923L283.689 49.1382Z" fill="url(#paint0_linear_10_11)"/>
<defs>
<linearGradient id="paint0_linear_10_11" x1="142.909" y1="24.083" x2="142.909" y2="105.083" gradientUnits="userSpaceOnUse">
<stop stop-color="white"/>
<stop offset="1" stop-color="white" stop-opacity="0"/>
</linearGradient>
</defs>
</svg>
