<svg width="97" height="19" viewBox="0 0 97 19" fill="none" xmlns="http://www.w3.org/2000/svg">
<g id="&#208;&#155;&#208;&#149;&#208;&#147;&#208;&#158;&#208;&#151;&#208;&#144;">
<path d="M16.56 1.2H2.76V11.136C2.76 11.648 2.704 12.12 2.592 12.552C2.48 12.984 2.312 13.352 2.088 13.656C1.88 13.944 1.616 14.168 1.296 14.328C0.992 14.488 0.64 14.568 0.24 14.568V18C1.792 18 3.056 17.744 4.032 17.232C5.008 16.704 5.72 15.912 6.168 14.856C6.632 13.784 6.864 12.464 6.864 10.896V4.824H12.432V18H16.56V1.2ZM22.9328 18H31.4048V14.664H22.9328V18ZM22.9328 4.536H31.4048V1.2H22.9328V4.536ZM22.9328 10.8H30.9248V7.536H22.9328V10.8ZM20.2448 1.2V18H24.1328V1.2H20.2448ZM34.8497 1.2V18H38.9057V4.824H44.8337V1.2H34.8497ZM48.987 9.6C48.987 8.608 49.179 7.736 49.563 6.984C49.963 6.216 50.515 5.616 51.219 5.184C51.939 4.752 52.779 4.536 53.739 4.536C54.715 4.536 55.555 4.752 56.259 5.184C56.963 5.616 57.507 6.216 57.891 6.984C58.275 7.736 58.467 8.608 58.467 9.6C58.467 10.592 58.267 11.472 57.867 12.24C57.483 12.992 56.931 13.584 56.211 14.016C55.507 14.448 54.683 14.664 53.739 14.664C52.779 14.664 51.939 14.448 51.219 14.016C50.515 13.584 49.963 12.992 49.563 12.24C49.179 11.472 48.987 10.592 48.987 9.6ZM44.691 9.6C44.691 10.896 44.907 12.088 45.339 13.176C45.787 14.264 46.411 15.208 47.211 16.008C48.027 16.808 48.987 17.432 50.091 17.88C51.195 18.312 52.411 18.528 53.739 18.528C55.051 18.528 56.259 18.312 57.363 17.88C58.467 17.432 59.419 16.808 60.219 16.008C61.035 15.208 61.659 14.264 62.091 13.176C62.539 12.088 62.763 10.896 62.763 9.6C62.763 8.304 62.539 7.12 62.091 6.048C61.643 4.976 61.011 4.048 60.195 3.264C59.379 2.48 58.419 1.88 57.315 1.464C56.227 1.032 55.035 0.816 53.739 0.816C52.459 0.816 51.267 1.032 50.163 1.464C49.059 1.88 48.099 2.48 47.283 3.264C46.467 4.048 45.827 4.976 45.363 6.048C44.915 7.12 44.691 8.304 44.691 9.6ZM70.9059 9.864C71.9459 9.864 72.9219 9.776 73.8339 9.6C74.7459 9.424 75.5459 9.16 76.2339 8.808C76.9219 8.44 77.4579 7.984 77.8419 7.44C78.2419 6.896 78.4419 6.264 78.4419 5.544C78.4419 4.68 78.1939 3.896 77.6979 3.192C77.2019 2.488 76.4739 1.928 75.5139 1.512C74.5539 1.096 73.3699 0.887999 71.9619 0.887999C70.5539 0.887999 69.3619 1.12 68.3859 1.584C67.4259 2.032 66.6979 2.656 66.2019 3.456C65.7059 4.24 65.4579 5.128 65.4579 6.12H69.1779C69.1779 5.72 69.2899 5.376 69.5139 5.088C69.7379 4.784 70.0579 4.552 70.4739 4.392C70.8899 4.216 71.3779 4.128 71.9379 4.128C72.4819 4.128 72.9379 4.208 73.3059 4.368C73.6739 4.512 73.9539 4.72 74.1459 4.992C74.3379 5.264 74.4339 5.584 74.4339 5.952C74.4339 6.352 74.2979 6.712 74.0259 7.032C73.7699 7.352 73.3779 7.6 72.8499 7.776C72.3379 7.952 71.6899 8.04 70.9059 8.04V9.864ZM72.0579 18.384C73.5779 18.384 74.8419 18.176 75.8499 17.76C76.8739 17.328 77.6419 16.744 78.1539 16.008C78.6659 15.256 78.9219 14.392 78.9219 13.416C78.9219 12.28 78.5699 11.36 77.8659 10.656C77.1779 9.936 76.2259 9.416 75.0099 9.096C73.8099 8.76 72.4419 8.592 70.9059 8.592V10.656C71.8339 10.656 72.5859 10.76 73.1619 10.968C73.7539 11.16 74.1939 11.432 74.4819 11.784C74.7699 12.136 74.9139 12.552 74.9139 13.032C74.9139 13.752 74.6419 14.28 74.0979 14.616C73.5539 14.952 72.8259 15.12 71.9139 15.12C71.3219 15.12 70.7859 15.032 70.3059 14.856C69.8259 14.68 69.4499 14.408 69.1779 14.04C68.9059 13.672 68.7539 13.216 68.7219 12.672H64.7379C64.7379 13.408 64.8819 14.12 65.1699 14.808C65.4579 15.496 65.8979 16.112 66.4899 16.656C67.0979 17.2 67.8579 17.624 68.7699 17.928C69.6979 18.232 70.7939 18.384 72.0579 18.384ZM83.6816 14.76H92.5616L92.2976 11.664H83.9696L83.6816 14.76ZM88.0736 7.368L90.4496 12.816L90.3056 13.848L92.3216 18H96.9296L88.0736 0.144L79.2416 18H83.8256L85.9136 13.68L85.7216 12.792L88.0736 7.368Z" fill="#45B600"/>
<path d="M16.56 1.2H17.56V0.199999H16.56V1.2ZM2.76 1.2V0.199999H1.76V1.2H2.76ZM2.592 12.552L1.624 12.301L1.624 12.301L2.592 12.552ZM2.088 13.656L1.28291 13.0628L1.27732 13.0705L2.088 13.656ZM1.296 14.328L0.848787 13.4336L0.839471 13.4382L0.830253 13.4431L1.296 14.328ZM0.24 14.568V13.568H-0.76V14.568H0.24ZM0.24 18H-0.76V19H0.24V18ZM4.032 17.232L4.49659 18.1176L4.50782 18.1115L4.032 17.232ZM6.168 14.856L5.25025 14.4588L5.24742 14.4655L6.168 14.856ZM6.864 4.824V3.824H5.864V4.824H6.864ZM12.432 4.824H13.432V3.824H12.432V4.824ZM12.432 18H11.432V19H12.432V18ZM16.56 18V19H17.56V18H16.56ZM16.56 0.199999H2.76V2.2H16.56V0.199999ZM1.76 1.2V11.136H3.76V1.2H1.76ZM1.76 11.136C1.76 11.5755 1.71191 11.962 1.624 12.301L3.56 12.803C3.6961 12.278 3.76 11.7205 3.76 11.136H1.76ZM1.624 12.301C1.53829 12.6316 1.41889 12.8783 1.28294 13.0628L2.89306 14.2492C3.20511 13.8257 3.42171 13.3364 3.56 12.803L1.624 12.301ZM1.27732 13.0705C1.16448 13.2268 1.02555 13.3452 0.848787 13.4336L1.74321 15.2224C2.20645 14.9908 2.59552 14.6612 2.89868 14.2415L1.27732 13.0705ZM0.830253 13.4431C0.6918 13.516 0.504459 13.568 0.24 13.568V15.568C0.775541 15.568 1.2922 15.46 1.76175 15.2129L0.830253 13.4431ZM-0.76 14.568V18H1.24V14.568H-0.76ZM0.24 19C1.89168 19 3.3308 18.7291 4.49655 18.1175L3.56745 16.3465C2.7812 16.7589 1.69232 17 0.24 17V19ZM4.50782 18.1115C5.69037 17.4718 6.55527 16.5036 7.08858 15.2465L5.24742 14.4655C4.88473 15.3204 4.32563 15.9362 3.55618 16.3525L4.50782 18.1115ZM7.08572 15.2532C7.61917 14.0208 7.864 12.5564 7.864 10.896H5.864C5.864 12.3716 5.64483 13.5472 5.25028 14.4588L7.08572 15.2532ZM7.864 10.896V4.824H5.864V10.896H7.864ZM6.864 5.824H12.432V3.824H6.864V5.824ZM11.432 4.824V18H13.432V4.824H11.432ZM12.432 19H16.56V17H12.432V19ZM17.56 18V1.2H15.56V18H17.56ZM22.9328 18H21.9328V19H22.9328V18ZM31.4048 18V19H32.4048V18H31.4048ZM31.4048 14.664H32.4048V13.664H31.4048V14.664ZM22.9328 14.664V13.664H21.9328V14.664H22.9328ZM22.9328 4.536H21.9328V5.536H22.9328V4.536ZM31.4048 4.536V5.536H32.4048V4.536H31.4048ZM31.4048 1.2H32.4048V0.199999H31.4048V1.2ZM22.9328 1.2V0.199999H21.9328V1.2H22.9328ZM22.9328 10.8H21.9328V11.8H22.9328V10.8ZM30.9248 10.8V11.8H31.9248V10.8H30.9248ZM30.9248 7.536H31.9248V6.536H30.9248V7.536ZM22.9328 7.536V6.536H21.9328V7.536H22.9328ZM20.2448 1.2V0.199999H19.2448V1.2H20.2448ZM20.2448 18H19.2448V19H20.2448V18ZM24.1328 18V19H25.1328V18H24.1328ZM24.1328 1.2H25.1328V0.199999H24.1328V1.2ZM22.9328 19H31.4048V17H22.9328V19ZM32.4048 18V14.664H30.4048V18H32.4048ZM31.4048 13.664H22.9328V15.664H31.4048V13.664ZM21.9328 14.664V18H23.9328V14.664H21.9328ZM22.9328 5.536H31.4048V3.536H22.9328V5.536ZM32.4048 4.536V1.2H30.4048V4.536H32.4048ZM31.4048 0.199999H22.9328V2.2H31.4048V0.199999ZM21.9328 1.2V4.536H23.9328V1.2H21.9328ZM22.9328 11.8H30.9248V9.8H22.9328V11.8ZM31.9248 10.8V7.536H29.9248V10.8H31.9248ZM30.9248 6.536H22.9328V8.536H30.9248V6.536ZM21.9328 7.536V10.8H23.9328V7.536H21.9328ZM19.2448 1.2V18H21.2448V1.2H19.2448ZM20.2448 19H24.1328V17H20.2448V19ZM25.1328 18V1.2H23.1328V18H25.1328ZM24.1328 0.199999H20.2448V2.2H24.1328V0.199999ZM34.8497 1.2V0.199999H33.8497V1.2H34.8497ZM34.8497 18H33.8497V19H34.8497V18ZM38.9057 18V19H39.9057V18H38.9057ZM38.9057 4.824V3.824H37.9057V4.824H38.9057ZM44.8337 4.824V5.824H45.8337V4.824H44.8337ZM44.8337 1.2H45.8337V0.199999H44.8337V1.2ZM33.8497 1.2V18H35.8497V1.2H33.8497ZM34.8497 19H38.9057V17H34.8497V19ZM39.9057 18V4.824H37.9057V18H39.9057ZM38.9057 5.824H44.8337V3.824H38.9057V5.824ZM45.8337 4.824V1.2H43.8337V4.824H45.8337ZM44.8337 0.199999H34.8497V2.2H44.8337V0.199999ZM49.563 6.984L48.6761 6.52205L48.6724 6.52922L49.563 6.984ZM51.219 5.184L50.7045 4.32646L50.696 4.33168L51.219 5.184ZM56.259 5.184L56.782 4.33168L56.782 4.33168L56.259 5.184ZM57.891 6.984L56.9965 7.43123L57.0004 7.43878L57.891 6.984ZM57.867 12.24L56.9801 11.778L56.9764 11.7852L57.867 12.24ZM56.211 14.016L55.6965 13.1585L55.688 13.1637L56.211 14.016ZM51.219 14.016L50.696 14.8684L50.7045 14.8735L51.219 14.016ZM49.563 12.24L48.6686 12.6872L48.6742 12.6985L48.6801 12.7096L49.563 12.24ZM45.339 13.176L44.4095 13.5451L44.4143 13.5567L45.339 13.176ZM47.211 16.008L46.5039 16.7151L46.5109 16.7221L47.211 16.008ZM50.091 17.88L49.715 18.8067L49.7266 18.8112L50.091 17.88ZM57.363 17.88L57.7274 18.8113L57.739 18.8066L57.363 17.88ZM60.219 16.008L59.5189 15.2939L59.5119 15.3009L60.219 16.008ZM62.091 13.176L61.1662 12.7952L61.1616 12.807L62.091 13.176ZM62.091 6.048L63.0137 5.66241L63.0137 5.66241L62.091 6.048ZM57.315 1.464L56.946 2.39342L56.9542 2.39667L56.9624 2.39977L57.315 1.464ZM50.163 1.464L50.5156 2.39985L50.5274 2.39524L50.163 1.464ZM45.363 6.048L44.4452 5.65074L44.4403 5.66241L45.363 6.048ZM49.987 9.6C49.987 8.73853 50.1531 8.0273 50.4536 7.43878L48.6724 6.52922C48.2049 7.4447 47.987 8.47747 47.987 9.6H49.987ZM50.4499 7.44593C50.7704 6.83051 51.2001 6.36889 51.742 6.03632L50.696 4.33168C49.8299 4.86311 49.1556 5.60149 48.6761 6.52207L50.4499 7.44593ZM51.7335 6.04149C52.2768 5.71548 52.9338 5.536 53.739 5.536V3.536C52.6242 3.536 51.6012 3.78852 50.7045 4.32651L51.7335 6.04149ZM53.739 5.536C54.5643 5.536 55.2159 5.71721 55.736 6.03632L56.782 4.33168C55.8941 3.78679 54.8657 3.536 53.739 3.536V5.536ZM55.736 6.03632C56.2743 6.36664 56.6926 6.82335 56.9966 7.43121L58.7854 6.53679C58.3214 5.60865 57.6517 4.86535 56.782 4.33168L55.736 6.03632ZM57.0004 7.43878C57.3009 8.0273 57.467 8.73853 57.467 9.6H59.467C59.467 8.47747 59.2491 7.4447 58.7816 6.52922L57.0004 7.43878ZM57.467 9.6C57.467 10.4547 57.2956 11.1722 56.9801 11.7781L58.7539 12.7019C59.2384 11.7718 59.467 10.7293 59.467 9.6H57.467ZM56.9764 11.7852C56.6771 12.3714 56.2549 12.8234 55.6965 13.1585L56.7255 14.8735C57.6071 14.3446 58.2889 13.6126 58.7576 12.6948L56.9764 11.7852ZM55.688 13.1637C55.1628 13.4859 54.5253 13.664 53.739 13.664V15.664C54.8407 15.664 55.8512 15.4101 56.734 14.8683L55.688 13.1637ZM53.739 13.664C52.9338 13.664 52.2768 13.4845 51.7335 13.1585L50.7045 14.8735C51.6012 15.4115 52.6242 15.664 53.739 15.664V13.664ZM51.742 13.1637C51.1948 12.8279 50.7649 12.3702 50.4459 11.7704L48.6801 12.7096C49.1611 13.6138 49.8352 14.3401 50.696 14.8683L51.742 13.1637ZM50.4574 11.7928C50.1529 11.1837 49.987 10.4609 49.987 9.6H47.987C47.987 10.7231 48.2051 11.7603 48.6686 12.6872L50.4574 11.7928ZM43.691 9.6C43.691 11.0088 43.9262 12.3276 44.4096 13.545L46.2684 12.807C45.8878 11.8484 45.691 10.7832 45.691 9.6H43.691ZM44.4143 13.5567C44.9105 14.7619 45.6068 15.818 46.5039 16.7151L47.9181 15.3009C47.2152 14.598 46.6635 13.7661 46.2637 12.7953L44.4143 13.5567ZM46.5109 16.7221C47.424 17.6173 48.4954 18.3117 49.715 18.8066L50.467 16.9534C49.4786 16.5523 48.63 15.9987 47.9111 15.2939L46.5109 16.7221ZM49.7266 18.8112C50.9599 19.2938 52.3012 19.528 53.739 19.528V17.528C52.5208 17.528 51.4302 17.3302 50.4554 16.9488L49.7266 18.8112ZM53.739 19.528C55.1624 19.528 56.4955 19.2933 57.7274 18.8112L56.9986 16.9488C56.0225 17.3307 54.9396 17.528 53.739 17.528V19.528ZM57.739 18.8066C58.9603 18.311 60.0266 17.6147 60.9261 16.7151L59.5119 15.3009C58.8114 16.0013 57.9737 16.553 56.987 16.9534L57.739 18.8066ZM60.9191 16.7221C61.8372 15.8219 62.5382 14.7595 63.0204 13.545L61.1616 12.807C60.7798 13.7685 60.2328 14.5941 59.5189 15.2939L60.9191 16.7221ZM63.0157 13.5567C63.5182 12.3363 63.763 11.0133 63.763 9.6H61.763C61.763 10.7787 61.5598 11.8397 61.1663 12.7953L63.0157 13.5567ZM63.763 9.6C63.763 8.18691 63.5183 6.86991 63.0137 5.66241L61.1683 6.43359C61.5597 7.37009 61.763 8.42109 61.763 9.6H63.763ZM63.0137 5.66241C62.5143 4.46747 61.8053 3.42438 60.8878 2.54289L59.5022 3.9851C60.2167 4.67162 60.7717 5.48453 61.1683 6.43359L63.0137 5.66241ZM60.8878 2.54289C59.97 1.66104 58.8929 0.989923 57.6676 0.528229L56.9624 2.39977C57.9451 2.77007 58.788 3.29896 59.5022 3.9851L60.8878 2.54289ZM57.684 0.534584C56.4666 0.051204 55.1478 -0.184 53.739 -0.184V1.816C54.9222 1.816 55.9874 2.0128 56.946 2.39342L57.684 0.534584ZM53.739 -0.184C52.3443 -0.184 51.0277 0.0518128 49.7986 0.532757L50.5274 2.39524C51.5063 2.01219 52.5737 1.816 53.739 1.816V-0.184ZM49.8104 0.528229C48.5851 0.989923 47.508 1.66104 46.5902 2.54289L47.9758 3.9851C48.69 3.29896 49.5329 2.77007 50.5156 2.39977L49.8104 0.528229ZM46.5902 2.54289C45.6753 3.42184 44.9603 4.46098 44.4453 5.65078L46.2807 6.44522C46.6937 5.49102 47.2587 4.67416 47.9758 3.9851L46.5902 2.54289ZM44.4403 5.66241C43.9357 6.86991 43.691 8.18691 43.691 9.6H45.691C45.691 8.42109 45.8943 7.37009 46.2857 6.43359L44.4403 5.66241ZM70.9059 9.864H69.9059V10.864H70.9059V9.864ZM76.2339 8.808L76.6894 9.69825L76.6975 9.69409L76.7056 9.68978L76.2339 8.808ZM77.8419 7.44L77.0363 6.84761L77.0306 6.85541L77.025 6.86332L77.8419 7.44ZM77.6979 3.192L76.8805 3.76795L76.8805 3.76795L77.6979 3.192ZM75.5139 1.512L75.1163 2.42955L75.1163 2.42955L75.5139 1.512ZM68.3859 1.584L68.8088 2.49021L68.8153 2.48713L68.3859 1.584ZM66.2019 3.456L67.0471 3.99066L67.0518 3.98294L66.2019 3.456ZM65.4579 6.12H64.4579V7.12H65.4579V6.12ZM69.1779 6.12V7.12H70.1779V6.12H69.1779ZM69.5139 5.088L70.3033 5.70194L70.3113 5.69167L70.319 5.6812L69.5139 5.088ZM70.4739 4.392L70.8329 5.32534L70.8483 5.31941L70.8636 5.31297L70.4739 4.392ZM73.3059 4.368L72.9072 5.28507L72.9242 5.29247L72.9415 5.29924L73.3059 4.368ZM74.1459 4.992L74.9629 4.41532L74.9629 4.41531L74.1459 4.992ZM74.0259 7.032L73.264 6.38435L73.2544 6.39569L73.2451 6.4073L74.0259 7.032ZM72.8499 7.776L72.5337 6.82727L72.5249 6.83031L72.8499 7.776ZM70.9059 8.04V7.04H69.9059V8.04H70.9059ZM75.8499 17.76L76.2314 18.6844L76.2386 18.6814L75.8499 17.76ZM78.1539 16.008L78.9749 16.5791L78.9805 16.5708L78.1539 16.008ZM77.8659 10.656L77.1429 11.3469L77.1508 11.3551L77.1588 11.3631L77.8659 10.656ZM75.0099 9.096L74.7403 10.059L74.7479 10.0611L74.7554 10.0631L75.0099 9.096ZM70.9059 8.592V7.592H69.9059V8.592H70.9059ZM70.9059 10.656H69.9059V11.656H70.9059V10.656ZM73.1619 10.968L72.8223 11.9086L72.8378 11.9141L72.8534 11.9192L73.1619 10.968ZM74.4819 11.784L73.708 12.4172L73.708 12.4172L74.4819 11.784ZM70.3059 14.856L70.6502 13.9171L70.6502 13.9171L70.3059 14.856ZM69.1779 14.04L69.9821 13.4456L69.9821 13.4456L69.1779 14.04ZM68.7219 12.672L69.7202 12.6133L69.6648 11.672H68.7219V12.672ZM64.7379 12.672V11.672H63.7379V12.672H64.7379ZM65.1699 14.808L64.2475 15.1941L64.2475 15.1941L65.1699 14.808ZM66.4899 16.656L65.8133 17.3924L65.8231 17.4012L66.4899 16.656ZM68.7699 17.928L68.4537 18.8767L68.4586 18.8783L68.7699 17.928ZM70.9059 10.864C72.0021 10.864 73.0421 10.7713 74.0234 10.5819L73.6445 8.61812C72.8018 8.78073 71.8898 8.864 70.9059 8.864V10.864ZM74.0234 10.5819C75.01 10.3915 75.9026 10.1008 76.6894 9.69825L75.7785 7.91775C75.1893 8.2192 74.4819 8.4565 73.6445 8.61812L74.0234 10.5819ZM76.7056 9.68978C77.5074 9.26093 78.1709 8.70801 78.6589 8.01668L77.025 6.86332C76.745 7.25999 76.3365 7.61907 75.7623 7.92621L76.7056 9.68978ZM78.6476 8.03239C79.1825 7.30497 79.4419 6.46212 79.4419 5.544H77.4419C77.4419 6.06588 77.3014 6.48703 77.0363 6.84761L78.6476 8.03239ZM79.4419 5.544C79.4419 4.47451 79.1306 3.48921 78.5154 2.61605L76.8805 3.76795C77.2573 4.30279 77.4419 4.88549 77.4419 5.544H79.4419ZM78.5154 2.61605C77.8928 1.73237 77.0039 1.0678 75.9115 0.594444L75.1163 2.42955C75.944 2.7882 76.511 3.24363 76.8805 3.76795L78.5154 2.61605ZM75.9115 0.594444C74.7907 0.108738 73.4621 -0.112001 71.9619 -0.112001V1.888C73.2778 1.888 74.3172 2.08326 75.1163 2.42955L75.9115 0.594444ZM71.9619 -0.112001C70.4486 -0.112001 69.1009 0.136827 67.9566 0.680866L68.8153 2.48713C69.6229 2.10317 70.6593 1.888 71.9619 1.888V-0.112001ZM67.9631 0.677816C66.8497 1.19738 65.963 1.94364 65.352 2.92906L67.0518 3.98294C67.4329 3.36836 68.0022 2.86662 68.8088 2.49018L67.9631 0.677816ZM65.3569 2.92136C64.7526 3.87651 64.4579 4.95241 64.4579 6.12H66.4579C66.4579 5.30359 66.6593 4.60349 67.047 3.99064L65.3569 2.92136ZM65.4579 7.12H69.1779V5.12H65.4579V7.12ZM70.1779 6.12C70.1779 5.91964 70.2291 5.79727 70.3033 5.70194L68.7246 4.47406C68.3507 4.95473 68.1779 5.52035 68.1779 6.12H70.1779ZM70.319 5.6812C70.4107 5.55672 70.5624 5.42939 70.8329 5.32534L70.115 3.45865C69.5535 3.67461 69.0652 4.01128 68.7089 4.4948L70.319 5.6812ZM70.8636 5.31297C71.1306 5.20002 71.4807 5.128 71.9379 5.128V3.128C71.2752 3.128 70.6493 3.23198 70.0843 3.47103L70.8636 5.31297ZM71.9379 5.128C72.3907 5.128 72.7013 5.19553 72.9072 5.28507L73.7047 3.45093C73.1746 3.22047 72.5732 3.128 71.9379 3.128V5.128ZM72.9415 5.29924C73.1619 5.38547 73.2696 5.48454 73.329 5.56868L74.9629 4.41531C74.6383 3.95546 74.186 3.63853 73.6703 3.43676L72.9415 5.29924ZM73.329 5.56868C73.3894 5.65428 73.4339 5.76775 73.4339 5.952H75.4339C75.4339 5.40024 75.2865 4.87372 74.9629 4.41532L73.329 5.56868ZM73.4339 5.952C73.4339 6.10214 73.3907 6.23534 73.264 6.38435L74.7879 7.67965C75.2052 7.18866 75.4339 6.60186 75.4339 5.952H73.4339ZM73.2451 6.4073C73.1454 6.53183 72.9424 6.69108 72.5337 6.82732L73.1662 8.72468C73.8135 8.50892 74.3944 8.17216 74.8068 7.65669L73.2451 6.4073ZM72.5249 6.83031C72.153 6.95815 71.6244 7.04 70.9059 7.04V9.04C71.7555 9.04 72.5229 8.94585 73.175 8.72169L72.5249 6.83031ZM69.9059 8.04V9.864H71.9059V8.04H69.9059ZM72.0579 19.384C73.6609 19.384 75.0648 19.1658 76.2314 18.6844L75.4685 16.8356C74.619 17.1862 73.495 17.384 72.0579 17.384V19.384ZM76.2386 18.6814C77.3952 18.1934 78.3316 17.5038 78.9748 16.5791L77.333 15.4369C76.9523 15.9842 76.3527 16.4626 75.4612 16.8386L76.2386 18.6814ZM78.9805 16.5708C79.6139 15.6406 79.9219 14.5774 79.9219 13.416H77.9219C77.9219 14.2066 77.718 14.8714 77.3273 15.4452L78.9805 16.5708ZM79.9219 13.416C79.9219 12.0554 79.4915 10.8673 78.573 9.94889L77.1588 11.3631C77.6484 11.8527 77.9219 12.5046 77.9219 13.416H79.9219ZM78.5889 9.96514C77.7437 9.08062 76.6126 8.48372 75.2644 8.12892L74.7554 10.0631C75.8392 10.3483 76.6122 10.7914 77.1429 11.3469L78.5889 9.96514ZM75.2796 8.13304C73.9742 7.76754 72.5128 7.592 70.9059 7.592V9.592C72.3711 9.592 73.6457 9.75246 74.7403 10.059L75.2796 8.13304ZM69.9059 8.592V10.656H71.9059V8.592H69.9059ZM70.9059 11.656C71.7716 11.656 72.3962 11.7547 72.8223 11.9086L73.5016 10.0274C72.7757 9.76533 71.8963 9.656 70.9059 9.656V11.656ZM72.8534 11.9192C73.328 12.0731 73.5785 12.259 73.708 12.4172L75.2559 11.1508C74.8094 10.605 74.1798 10.2469 73.4704 10.0168L72.8534 11.9192ZM73.708 12.4172C73.8413 12.5802 73.9139 12.769 73.9139 13.032H75.9139C75.9139 12.335 75.6986 11.6918 75.2559 11.1508L73.708 12.4172ZM73.9139 13.032C73.9139 13.4573 73.7798 13.6371 73.5724 13.7652L74.6234 15.4668C75.504 14.9229 75.9139 14.0467 75.9139 13.032H73.9139ZM73.5724 13.7652C73.24 13.9706 72.7154 14.12 71.9139 14.12V16.12C72.9364 16.12 73.8679 15.9334 74.6234 15.4668L73.5724 13.7652ZM71.9139 14.12C71.4211 14.12 71.004 14.0469 70.6502 13.9171L69.9617 15.7949C70.5679 16.0171 71.2227 16.12 71.9139 16.12V14.12ZM70.6502 13.9171C70.3316 13.8003 70.1245 13.6382 69.9821 13.4456L68.3738 14.6344C68.7754 15.1778 69.3203 15.5597 69.9617 15.7949L70.6502 13.9171ZM69.9821 13.4456C69.8459 13.2613 69.743 13.0012 69.7202 12.6133L67.7237 12.7307C67.7648 13.4308 67.966 14.0827 68.3738 14.6344L69.9821 13.4456ZM68.7219 11.672H64.7379V13.672H68.7219V11.672ZM63.7379 12.672C63.7379 13.5424 63.909 14.3855 64.2475 15.1941L66.0924 14.4219C65.8549 13.8545 65.7379 13.2736 65.7379 12.672H63.7379ZM64.2475 15.1941C64.5955 16.0254 65.1235 16.7584 65.8133 17.3923L67.1666 15.9197C66.6724 15.4656 66.3204 14.9666 66.0924 14.4219L64.2475 15.1941ZM65.8231 17.4012C66.5494 18.051 67.435 18.5371 68.4537 18.8767L69.0862 16.9793C68.2809 16.7109 67.6465 16.349 67.1567 15.9108L65.8231 17.4012ZM68.4586 18.8783C69.5117 19.2233 70.7176 19.384 72.0579 19.384V17.384C70.8703 17.384 69.8842 17.2407 69.0812 16.9777L68.4586 18.8783ZM83.6816 14.76L82.6859 14.6674L82.5843 15.76H83.6816V14.76ZM92.5616 14.76V15.76H93.6505L93.558 14.675L92.5616 14.76ZM92.2976 11.664L93.294 11.579L93.216 10.664H92.2976V11.664ZM83.9696 11.664V10.664H83.0583L82.9739 11.5714L83.9696 11.664ZM88.0736 7.368L88.9902 6.96824L88.071 4.86046L87.1562 6.97016L88.0736 7.368ZM90.4496 12.816L91.44 12.9542L91.479 12.6748L91.3662 12.4162L90.4496 12.816ZM90.3056 13.848L89.3152 13.7098L89.2732 14.0111L89.4061 14.2848L90.3056 13.848ZM92.3216 18L91.4221 18.4368L91.6955 19H92.3216V18ZM96.9296 18V19H98.5418L97.8255 17.5557L96.9296 18ZM88.0736 0.144L88.9695 -0.300322L88.0724 -2.10908L87.1773 -0.299355L88.0736 0.144ZM79.2416 18L78.3453 17.5566L77.6314 19H79.2416V18ZM83.8256 18V19H84.453L84.726 18.4352L83.8256 18ZM85.9136 13.68L86.814 14.1152L86.9638 13.8052L86.891 13.4687L85.9136 13.68ZM85.7216 12.792L84.8042 12.3942L84.6763 12.6891L84.7442 13.0033L85.7216 12.792ZM83.6816 15.76H92.5616V13.76H83.6816V15.76ZM93.558 14.675L93.294 11.579L91.3012 11.749L91.5652 14.845L93.558 14.675ZM92.2976 10.664H83.9696V12.664H92.2976V10.664ZM82.9739 11.5714L82.6859 14.6674L84.6773 14.8526L84.9653 11.7566L82.9739 11.5714ZM87.157 7.76776L89.533 13.2158L91.3662 12.4162L88.9902 6.96824L87.157 7.76776ZM89.4592 12.6778L89.3152 13.7098L91.296 13.9862L91.44 12.9542L89.4592 12.6778ZM89.4061 14.2848L91.4221 18.4368L93.2212 17.5632L91.2052 13.4112L89.4061 14.2848ZM92.3216 19H96.9296V17H92.3216V19ZM97.8255 17.5557L88.9695 -0.300322L87.1778 0.588321L96.0338 18.4443L97.8255 17.5557ZM87.1773 -0.299355L78.3453 17.5566L80.138 18.4434L88.97 0.587354L87.1773 -0.299355ZM79.2416 19H83.8256V17H79.2416V19ZM84.726 18.4352L86.814 14.1152L85.0133 13.2448L82.9253 17.5648L84.726 18.4352ZM86.891 13.4687L86.699 12.5807L84.7442 13.0033L84.9362 13.8913L86.891 13.4687ZM86.6391 13.1898L88.9911 7.76583L87.1562 6.97016L84.8042 12.3942L86.6391 13.1898Z" fill="black"/>
</g>
</svg>
