<svg width="161" height="19" viewBox="0 0 161 19" fill="none" xmlns="http://www.w3.org/2000/svg">
<path d="M0.776 1.2V18H11.576V14.52H4.832V1.2H0.776ZM16.0651 9.6C16.0651 8.608 16.2571 7.736 16.6411 6.984C17.0411 6.216 17.5931 5.616 18.2971 5.184C19.0171 4.752 19.8571 4.536 20.8171 4.536C21.7931 4.536 22.6331 4.752 23.3371 5.184C24.0411 5.616 24.5851 6.216 24.9691 6.984C25.3531 7.736 25.5451 8.608 25.5451 9.6C25.5451 10.592 25.3451 11.472 24.9451 12.24C24.5611 12.992 24.0091 13.584 23.2891 14.016C22.5851 14.448 21.7611 14.664 20.8171 14.664C19.8571 14.664 19.0171 14.448 18.2971 14.016C17.5931 13.584 17.0411 12.992 16.6411 12.24C16.2571 11.472 16.0651 10.592 16.0651 9.6ZM11.7691 9.6C11.7691 10.896 11.9851 12.088 12.4171 13.176C12.8651 14.264 13.4891 15.208 14.2891 16.008C15.1051 16.808 16.0651 17.432 17.1691 17.88C18.2731 18.312 19.4891 18.528 20.8171 18.528C22.1291 18.528 23.3371 18.312 24.4411 17.88C25.5451 17.432 26.4971 16.808 27.2971 16.008C28.1131 15.208 28.7371 14.264 29.1691 13.176C29.6171 12.088 29.8411 10.896 29.8411 9.6C29.8411 8.304 29.6171 7.12 29.1691 6.048C28.7211 4.976 28.0891 4.048 27.2731 3.264C26.4571 2.48 25.4971 1.88 24.3931 1.464C23.3051 1.032 22.1131 0.816 20.8171 0.816C19.5371 0.816 18.3451 1.032 17.2411 1.464C16.1371 1.88 15.1771 2.48 14.3611 3.264C13.5451 4.048 12.9051 4.976 12.4411 6.048C11.9931 7.12 11.7691 8.304 11.7691 9.6ZM44.0321 1.2V10.656L32.4401 0.36V18H36.3281V8.544L47.9441 18.84V1.2H44.0321ZM51.4948 1.2V18H55.6708V1.2H51.4948ZM57.4948 18C59.3348 18 60.9268 17.656 62.2708 16.968C63.6148 16.28 64.6548 15.312 65.3908 14.064C66.1268 12.8 66.4948 11.312 66.4948 9.6C66.4948 7.872 66.1268 6.384 65.3908 5.136C64.6548 3.888 63.6148 2.92 62.2708 2.232C60.9268 1.544 59.3348 1.2 57.4948 1.2H54.1828V4.8H57.3508C57.9908 4.8 58.6068 4.88 59.1988 5.04C59.8068 5.2 60.3348 5.464 60.7828 5.832C61.2468 6.2 61.6148 6.696 61.8868 7.32C62.1588 7.928 62.2948 8.688 62.2948 9.6C62.2948 10.512 62.1588 11.28 61.8868 11.904C61.6148 12.512 61.2468 13 60.7828 13.368C60.3348 13.736 59.8068 14 59.1988 14.16C58.6068 14.32 57.9908 14.4 57.3508 14.4H54.1828V18H57.4948ZM72.4323 9.6C72.4323 8.608 72.6243 7.736 73.0083 6.984C73.4083 6.216 73.9603 5.616 74.6643 5.184C75.3843 4.752 76.2243 4.536 77.1843 4.536C78.1603 4.536 79.0003 4.752 79.7043 5.184C80.4083 5.616 80.9523 6.216 81.3363 6.984C81.7203 7.736 81.9123 8.608 81.9123 9.6C81.9123 10.592 81.7123 11.472 81.3123 12.24C80.9283 12.992 80.3763 13.584 79.6563 14.016C78.9523 14.448 78.1283 14.664 77.1843 14.664C76.2243 14.664 75.3843 14.448 74.6643 14.016C73.9603 13.584 73.4083 12.992 73.0083 12.24C72.6243 11.472 72.4323 10.592 72.4323 9.6ZM68.1363 9.6C68.1363 10.896 68.3523 12.088 68.7843 13.176C69.2323 14.264 69.8563 15.208 70.6563 16.008C71.4723 16.808 72.4323 17.432 73.5363 17.88C74.6403 18.312 75.8563 18.528 77.1843 18.528C78.4963 18.528 79.7043 18.312 80.8083 17.88C81.9123 17.432 82.8643 16.808 83.6643 16.008C84.4803 15.208 85.1043 14.264 85.5363 13.176C85.9843 12.088 86.2083 10.896 86.2083 9.6C86.2083 8.304 85.9843 7.12 85.5363 6.048C85.0883 4.976 84.4563 4.048 83.6403 3.264C82.8243 2.48 81.8643 1.88 80.7603 1.464C79.6723 1.032 78.4803 0.816 77.1843 0.816C75.9043 0.816 74.7123 1.032 73.6083 1.464C72.5043 1.88 71.5443 2.48 70.7283 3.264C69.9123 4.048 69.2723 4.976 68.8083 6.048C68.3603 7.12 68.1363 8.304 68.1363 9.6ZM100.399 1.2V10.656L88.8073 0.36V18H92.6953V8.544L104.311 18.84V1.2H100.399ZM118.081 9.648H121.225C122.393 9.648 123.417 9.488 124.297 9.168C125.193 8.832 125.897 8.352 126.409 7.728C126.937 7.104 127.201 6.352 127.201 5.472C127.201 4.512 126.937 3.72 126.409 3.096C125.897 2.456 125.193 1.984 124.297 1.68C123.417 1.36 122.393 1.2 121.225 1.2H115.057V18H121.633C122.961 18 124.113 17.84 125.089 17.52C126.065 17.184 126.817 16.672 127.345 15.984C127.889 15.296 128.161 14.392 128.161 13.272C128.161 12.424 127.969 11.704 127.585 11.112C127.217 10.504 126.721 10.008 126.097 9.624C125.473 9.224 124.777 8.936 124.009 8.76C123.241 8.584 122.449 8.496 121.633 8.496H118.081V10.704H121.177C121.577 10.704 121.937 10.744 122.257 10.824C122.593 10.888 122.889 11 123.145 11.16C123.401 11.32 123.601 11.528 123.745 11.784C123.889 12.04 123.961 12.344 123.961 12.696C123.961 13.24 123.833 13.672 123.577 13.992C123.337 14.296 123.009 14.52 122.593 14.664C122.177 14.792 121.705 14.856 121.177 14.856H119.113V4.344H120.793C121.497 4.344 122.041 4.488 122.425 4.776C122.809 5.064 123.001 5.496 123.001 6.072C123.001 6.456 122.913 6.784 122.737 7.056C122.561 7.312 122.305 7.512 121.969 7.656C121.649 7.8 121.257 7.872 120.793 7.872H118.081V9.648ZM130.875 1.2V12.48C130.875 13.536 131.043 14.456 131.379 15.24C131.731 16.024 132.211 16.672 132.819 17.184C133.443 17.68 134.163 18.056 134.979 18.312C135.795 18.568 136.675 18.696 137.619 18.696C138.563 18.696 139.443 18.568 140.259 18.312C141.091 18.056 141.811 17.68 142.419 17.184C143.043 16.672 143.523 16.024 143.859 15.24C144.211 14.456 144.387 13.536 144.387 12.48V1.2H140.331V12.192C140.331 13.04 140.107 13.728 139.659 14.256C139.211 14.784 138.531 15.048 137.619 15.048C136.723 15.048 136.051 14.784 135.603 14.256C135.155 13.728 134.931 13.04 134.931 12.192V1.2H130.875ZM149.671 12.096L146.839 14.136C147.223 14.936 147.759 15.672 148.447 16.344C149.135 17.016 149.943 17.552 150.871 17.952C151.815 18.336 152.831 18.528 153.919 18.528C154.703 18.528 155.463 18.408 156.199 18.168C156.951 17.944 157.615 17.608 158.191 17.16C158.783 16.712 159.247 16.16 159.583 15.504C159.935 14.832 160.111 14.072 160.111 13.224C160.111 12.52 159.999 11.896 159.775 11.352C159.551 10.808 159.239 10.328 158.839 9.912C158.455 9.496 158.007 9.144 157.495 8.856C156.983 8.552 156.431 8.288 155.839 8.064C155.055 7.792 154.383 7.536 153.823 7.296C153.279 7.056 152.855 6.792 152.551 6.504C152.263 6.216 152.119 5.88 152.119 5.496C152.119 5.128 152.271 4.824 152.575 4.584C152.879 4.328 153.319 4.2 153.895 4.2C154.327 4.2 154.727 4.288 155.095 4.464C155.479 4.624 155.823 4.856 156.127 5.16C156.447 5.448 156.727 5.792 156.967 6.192L160.063 4.464C159.775 3.888 159.359 3.32 158.815 2.76C158.271 2.2 157.583 1.736 156.751 1.368C155.935 1 154.967 0.816 153.847 0.816C152.759 0.816 151.767 1.008 150.871 1.392C149.991 1.76 149.287 2.304 148.759 3.024C148.247 3.744 147.991 4.6 147.991 5.592C147.991 6.424 148.143 7.136 148.447 7.728C148.751 8.304 149.135 8.8 149.599 9.216C150.063 9.616 150.551 9.944 151.063 10.2C151.591 10.456 152.055 10.656 152.455 10.8C153.271 11.104 153.927 11.376 154.423 11.616C154.919 11.856 155.279 12.112 155.503 12.384C155.727 12.64 155.839 12.984 155.839 13.416C155.839 13.928 155.647 14.336 155.263 14.64C154.879 14.928 154.391 15.072 153.799 15.072C153.239 15.072 152.703 14.952 152.191 14.712C151.695 14.472 151.231 14.128 150.799 13.68C150.383 13.232 150.007 12.704 149.671 12.096Z" fill="#F00808"/>
<path d="M0.776 1.2V0.199999H-0.224V1.2H0.776ZM0.776 18H-0.224V19H0.776V18ZM11.576 18V19H12.576V18H11.576ZM11.576 14.52H12.576V13.52H11.576V14.52ZM4.832 14.52H3.832V15.52H4.832V14.52ZM4.832 1.2H5.832V0.199999H4.832V1.2ZM-0.224 1.2V18H1.776V1.2H-0.224ZM0.776 19H11.576V17H0.776V19ZM12.576 18V14.52H10.576V18H12.576ZM11.576 13.52H4.832V15.52H11.576V13.52ZM5.832 14.52V1.2H3.832V14.52H5.832ZM4.832 0.199999H0.776V2.2H4.832V0.199999ZM16.6411 6.984L15.7542 6.52205L15.7505 6.52922L16.6411 6.984ZM18.2971 5.184L17.7826 4.32646L17.7741 4.33168L18.2971 5.184ZM23.3371 5.184L23.8601 4.33168L23.3371 5.184ZM24.9691 6.984L24.0747 7.43123L24.0785 7.43878L24.9691 6.984ZM24.9451 12.24L24.0582 11.778L24.0545 11.7852L24.9451 12.24ZM23.2891 14.016L22.7746 13.1585L22.7661 13.1637L23.2891 14.016ZM18.2971 14.016L17.7741 14.8684L17.7826 14.8735L18.2971 14.016ZM16.6411 12.24L15.7467 12.6872L15.7523 12.6985L15.7583 12.7096L16.6411 12.24ZM12.4171 13.176L11.4876 13.5451L11.4924 13.5567L12.4171 13.176ZM14.2891 16.008L13.582 16.7151L13.5891 16.7221L14.2891 16.008ZM17.1691 17.88L16.7931 18.8067L16.8047 18.8112L17.1691 17.88ZM24.4411 17.88L24.8056 18.8113L24.8171 18.8066L24.4411 17.88ZM27.2971 16.008L26.597 15.2939L26.59 15.3009L27.2971 16.008ZM29.1691 13.176L28.2444 12.7952L28.2397 12.807L29.1691 13.176ZM29.1691 6.048L30.0918 5.66241L29.1691 6.048ZM24.3931 1.464L24.0241 2.39342L24.0323 2.39667L24.0405 2.39977L24.3931 1.464ZM17.2411 1.464L17.5938 2.39985L17.6055 2.39524L17.2411 1.464ZM12.4411 6.048L11.5233 5.65074L11.5185 5.66241L12.4411 6.048ZM17.0651 9.6C17.0651 8.73853 17.2312 8.0273 17.5317 7.43878L15.7505 6.52922C15.283 7.4447 15.0651 8.47747 15.0651 9.6H17.0651ZM17.528 7.44593C17.8486 6.83051 18.2782 6.36889 18.8201 6.03632L17.7741 4.33168C16.9081 4.86311 16.2337 5.60149 15.7542 6.52207L17.528 7.44593ZM18.8116 6.04149C19.355 5.71548 20.0119 5.536 20.8171 5.536V3.536C19.7024 3.536 18.6793 3.78852 17.7826 4.32651L18.8116 6.04149ZM20.8171 5.536C21.6424 5.536 22.2941 5.71721 22.8141 6.03632L23.8601 4.33168C22.9722 3.78679 21.9438 3.536 20.8171 3.536V5.536ZM22.8141 6.03632C23.3524 6.36664 23.7708 6.82335 24.0747 7.43121L25.8636 6.53679C25.3995 5.60865 24.7298 4.86535 23.8601 4.33168L22.8141 6.03632ZM24.0785 7.43878C24.379 8.0273 24.5451 8.73853 24.5451 9.6H26.5451C26.5451 8.47747 26.3272 7.4447 25.8597 6.52922L24.0785 7.43878ZM24.5451 9.6C24.5451 10.4547 24.3737 11.1722 24.0582 11.7781L25.832 12.7019C26.3165 11.7718 26.5451 10.7293 26.5451 9.6H24.5451ZM24.0545 11.7852C23.7552 12.3714 23.3331 12.8234 22.7746 13.1585L23.8036 14.8735C24.6852 14.3446 25.3671 13.6126 25.8357 12.6948L24.0545 11.7852ZM22.7661 13.1637C22.241 13.4859 21.6034 13.664 20.8171 13.664V15.664C21.9188 15.664 22.9293 15.4101 23.8121 14.8683L22.7661 13.1637ZM20.8171 13.664C20.0119 13.664 19.355 13.4845 18.8116 13.1585L17.7826 14.8735C18.6793 15.4115 19.7024 15.664 20.8171 15.664V13.664ZM18.8201 13.1637C18.2729 12.8279 17.843 12.3702 17.524 11.7704L15.7583 12.7096C16.2392 13.6138 16.9133 14.3401 17.7741 14.8683L18.8201 13.1637ZM17.5356 11.7928C17.231 11.1837 17.0651 10.4609 17.0651 9.6H15.0651C15.0651 10.7231 15.2832 11.7603 15.7467 12.6872L17.5356 11.7928ZM10.7691 9.6C10.7691 11.0088 11.0043 12.3276 11.4877 13.545L13.3465 12.807C12.9659 11.8484 12.7691 10.7832 12.7691 9.6H10.7691ZM11.4924 13.5567C11.9887 14.7619 12.6849 15.818 13.582 16.7151L14.9962 15.3009C14.2933 14.598 13.7416 13.7661 13.3418 12.7952L11.4924 13.5567ZM13.5891 16.7221C14.5021 17.6173 15.5735 18.3117 16.7931 18.8066L17.5451 16.9534C16.5567 16.5523 15.7081 15.9987 14.9892 15.2939L13.5891 16.7221ZM16.8047 18.8112C18.038 19.2938 19.3794 19.528 20.8171 19.528V17.528C19.5989 17.528 18.5083 17.3302 17.5335 16.9488L16.8047 18.8112ZM20.8171 19.528C22.2405 19.528 23.5736 19.2933 24.8055 18.8112L24.0767 16.9488C23.1006 17.3307 22.0177 17.528 20.8171 17.528V19.528ZM24.8171 18.8066C26.0384 18.311 27.1047 17.6147 28.0042 16.7151L26.59 15.3009C25.8896 16.0013 25.0519 16.553 24.0651 16.9534L24.8171 18.8066ZM27.9972 16.7221C28.9154 15.8219 29.6163 14.7595 30.0985 13.545L28.2397 12.807C27.8579 13.7685 27.3109 14.5941 26.5971 15.2939L27.9972 16.7221ZM30.0938 13.5567C30.5964 12.3363 30.8411 11.0133 30.8411 9.6H28.8411C28.8411 10.7787 28.6379 11.8397 28.2444 12.7952L30.0938 13.5567ZM30.8411 9.6C30.8411 8.18691 30.5964 6.86991 30.0918 5.66241L28.2465 6.43359C28.6378 7.37009 28.8411 8.42109 28.8411 9.6H30.8411ZM30.0918 5.66241C29.5924 4.46747 28.8834 3.42438 27.966 2.5429L26.5803 3.9851C27.2948 4.67162 27.8498 5.48453 28.2465 6.43359L30.0918 5.66241ZM27.966 2.5429C27.0481 1.66104 25.971 0.989923 24.7457 0.528229L24.0405 2.39977C25.0232 2.77007 25.8661 3.29896 26.5803 3.9851L27.966 2.5429ZM24.7622 0.534583C23.5448 0.0512037 22.226 -0.184 20.8171 -0.184V1.816C22.0003 1.816 23.0655 2.0128 24.0241 2.39342L24.7622 0.534583ZM20.8171 -0.184C19.4224 -0.184 18.1058 0.0518131 16.8767 0.532757L17.6055 2.39524C18.5844 2.01219 19.6518 1.816 20.8171 1.816V-0.184ZM16.8885 0.528229C15.6632 0.989923 14.5862 1.66104 13.6683 2.5429L15.054 3.9851C15.7681 3.29896 16.611 2.77007 17.5937 2.39977L16.8885 0.528229ZM13.6683 2.5429C12.7535 3.42184 12.0384 4.46098 11.5234 5.65078L13.3588 6.44522C13.7719 5.49102 14.3368 4.67416 15.054 3.9851L13.6683 2.5429ZM11.5185 5.66241C11.0138 6.86991 10.7691 8.18691 10.7691 9.6H12.7691C12.7691 8.42109 12.9724 7.37009 13.3638 6.43359L11.5185 5.66241ZM44.0321 1.2V0.199999H43.0321V1.2H44.0321ZM44.0321 10.656L43.368 11.4037L45.0321 12.8817V10.656H44.0321ZM32.4401 0.36L33.1041 -0.387666L31.4401 -1.8657V0.36H32.4401ZM32.4401 18H31.4401V19H32.4401V18ZM36.3281 18V19H37.3281V18H36.3281ZM36.3281 8.544L36.9914 7.79565L35.3281 6.32136V8.544H36.3281ZM47.9441 18.84L47.2808 19.5883L48.9441 21.0626V18.84H47.9441ZM47.9441 1.2H48.9441V0.199999H47.9441V1.2ZM43.0321 1.2V10.656H45.0321V1.2H43.0321ZM44.6961 9.90833L33.1041 -0.387666L31.776 1.10767L43.368 11.4037L44.6961 9.90833ZM31.4401 0.36V18H33.4401V0.36H31.4401ZM32.4401 19H36.3281V17H32.4401V19ZM37.3281 18V8.544H35.3281V18H37.3281ZM35.6648 9.29235L47.2808 19.5883L48.6074 18.0917L36.9914 7.79565L35.6648 9.29235ZM48.9441 18.84V1.2H46.9441V18.84H48.9441ZM47.9441 0.199999H44.0321V2.2H47.9441V0.199999ZM51.4948 1.2V0.199999H50.4948V1.2H51.4948ZM51.4948 18H50.4948V19H51.4948V18ZM55.6707 18V19H56.6707V18H55.6707ZM55.6707 1.2H56.6707V0.199999H55.6707V1.2ZM62.2708 16.968L61.8151 16.0779L62.2708 16.968ZM65.3908 14.064L66.2521 14.572L66.2549 14.5672L65.3908 14.064ZM65.3908 5.136L64.5294 5.64398L65.3908 5.136ZM62.2708 2.232L61.8151 3.12215V3.12215L62.2708 2.232ZM54.1828 1.2V0.199999H53.1828V1.2H54.1828ZM54.1828 4.8H53.1828V5.8H54.1828V4.8ZM59.1987 5.04L58.9378 6.00538L58.9443 6.00707L59.1987 5.04ZM60.7827 5.832L60.148 6.60473L60.1546 6.61017L60.1614 6.6155L60.7827 5.832ZM61.8867 7.32L60.97 7.7196L60.9739 7.72837L61.8867 7.32ZM61.8867 11.904L62.7996 12.3124L62.8034 12.3036L61.8867 11.904ZM60.7827 13.368L60.1614 12.5845L60.1546 12.5898L60.148 12.5953L60.7827 13.368ZM59.1987 14.16L58.9443 13.1929L58.9378 13.1946L59.1987 14.16ZM54.1828 14.4V13.4H53.1828V14.4H54.1828ZM54.1828 18H53.1828V19H54.1828V18ZM50.4948 1.2V18H52.4948V1.2H50.4948ZM51.4948 19H55.6707V17H51.4948V19ZM56.6707 18V1.2H54.6707V18H56.6707ZM55.6707 0.199999H51.4948V2.2H55.6707V0.199999ZM57.4948 19C59.459 19 61.2138 18.6325 62.7264 17.8581L61.8151 16.0779C60.6397 16.6795 59.2105 17 57.4948 17V19ZM62.7264 17.8581C64.2317 17.0876 65.4157 15.9903 66.2521 14.572L64.5294 13.556C63.8938 14.6337 62.9978 15.4724 61.8151 16.0779L62.7264 17.8581ZM66.2549 14.5672C67.094 13.1261 67.4948 11.4584 67.4948 9.6H65.4948C65.4948 11.1656 65.1595 12.4739 64.5266 13.5608L66.2549 14.5672ZM67.4948 9.6C67.4948 7.72791 67.095 6.0572 66.2521 4.62801L64.5294 5.64398C65.1585 6.7108 65.4948 8.01608 65.4948 9.6H67.4948ZM66.2521 4.62801C65.4157 3.20967 64.2317 2.11239 62.7264 1.34185L61.8151 3.12215C62.9978 3.7276 63.8938 4.56633 64.5294 5.64398L66.2521 4.62801ZM62.7264 1.34185C61.2138 0.567537 59.459 0.199999 57.4948 0.199999V2.2C59.2105 2.2 60.6397 2.52046 61.8151 3.12215L62.7264 1.34185ZM57.4948 0.199999H54.1828V2.2H57.4948V0.199999ZM53.1828 1.2V4.8H55.1828V1.2H53.1828ZM54.1828 5.8H57.3507V3.8H54.1828V5.8ZM57.3507 5.8C57.9065 5.8 58.4345 5.86934 58.9378 6.00536L59.4597 4.07464C58.779 3.89066 58.075 3.8 57.3507 3.8V5.8ZM58.9443 6.00707C59.4249 6.13356 59.8204 6.33564 60.148 6.60473L61.4175 5.05927C60.8491 4.59236 60.1886 4.26644 59.4532 4.07292L58.9443 6.00707ZM60.1614 6.6155C60.4789 6.86736 60.7537 7.22321 60.9701 7.71959L62.8034 6.92041C62.4758 6.16879 62.0146 5.53264 61.4041 5.0485L60.1614 6.6155ZM60.9739 7.72837C61.1714 8.16974 61.2948 8.77987 61.2948 9.6H63.2948C63.2948 8.59613 63.1461 7.68626 62.7996 6.91163L60.9739 7.72837ZM61.2948 9.6C61.2948 10.4187 61.1718 11.0415 60.9701 11.5044L62.8034 12.3036C63.1457 11.5185 63.2948 10.6053 63.2948 9.6H61.2948ZM60.9739 11.4956C60.7593 11.9755 60.4845 12.3282 60.1614 12.5845L61.4041 14.1515C62.009 13.6718 62.4702 13.0485 62.7996 12.3124L60.9739 11.4956ZM60.148 12.5953C59.8204 12.8644 59.4249 13.0664 58.9443 13.1929L59.4532 15.1271C60.1886 14.9336 60.8491 14.6076 61.4175 14.1407L60.148 12.5953ZM58.9378 13.1946C58.4345 13.3307 57.9065 13.4 57.3507 13.4V15.4C58.075 15.4 58.779 15.3093 59.4597 15.1254L58.9378 13.1946ZM57.3507 13.4H54.1828V15.4H57.3507V13.4ZM53.1828 14.4V18H55.1828V14.4H53.1828ZM54.1828 19H57.4948V17H54.1828V19ZM73.0083 6.984L72.1214 6.52205L72.1177 6.52922L73.0083 6.984ZM74.6643 5.184L74.1498 4.32646L74.1413 4.33168L74.6643 5.184ZM79.7043 5.184L80.2273 4.33168L79.7043 5.184ZM81.3363 6.984L80.4419 7.43123L80.4457 7.43878L81.3363 6.984ZM81.3123 12.24L80.4254 11.778L80.4217 11.7852L81.3123 12.24ZM79.6563 14.016L79.1418 13.1585L79.1333 13.1637L79.6563 14.016ZM74.6643 14.016L74.1413 14.8684L74.1498 14.8735L74.6643 14.016ZM73.0083 12.24L72.1139 12.6872L72.1195 12.6985L72.1254 12.7096L73.0083 12.24ZM68.7843 13.176L67.8548 13.5451L67.8596 13.5567L68.7843 13.176ZM70.6563 16.008L69.9492 16.7151L69.9562 16.7221L70.6563 16.008ZM73.5363 17.88L73.1603 18.8067L73.1719 18.8112L73.5363 17.88ZM80.8083 17.88L81.1727 18.8113L81.1843 18.8066L80.8083 17.88ZM83.6643 16.008L82.9642 15.2939L82.9572 15.3009L83.6643 16.008ZM85.5363 13.176L84.6116 12.7952L84.6069 12.807L85.5363 13.176ZM85.5363 6.048L86.459 5.66241L85.5363 6.048ZM80.7603 1.464L80.3913 2.39342L80.3995 2.39667L80.4077 2.39977L80.7603 1.464ZM73.6083 1.464L73.961 2.39985L73.9727 2.39524L73.6083 1.464ZM68.8083 6.048L67.8905 5.65074L67.8856 5.66241L68.8083 6.048ZM73.4323 9.6C73.4323 8.73853 73.5984 8.0273 73.8989 7.43878L72.1177 6.52922C71.6502 7.4447 71.4323 8.47747 71.4323 9.6H73.4323ZM73.8952 7.44593C74.2158 6.83051 74.6454 6.36889 75.1873 6.03632L74.1413 4.33168C73.2753 4.86311 72.6009 5.60149 72.1214 6.52207L73.8952 7.44593ZM75.1788 6.04149C75.7222 5.71548 76.3791 5.536 77.1843 5.536V3.536C76.0695 3.536 75.0465 3.78852 74.1498 4.32651L75.1788 6.04149ZM77.1843 5.536C78.0096 5.536 78.6613 5.71721 79.1813 6.03632L80.2273 4.33168C79.3394 3.78679 78.311 3.536 77.1843 3.536V5.536ZM79.1813 6.03632C79.7196 6.36664 80.138 6.82335 80.4419 7.43121L82.2307 6.53679C81.7667 5.60865 81.097 4.86535 80.2273 4.33168L79.1813 6.03632ZM80.4457 7.43878C80.7462 8.0273 80.9123 8.73853 80.9123 9.6H82.9123C82.9123 8.47747 82.6944 7.4447 82.2269 6.52922L80.4457 7.43878ZM80.9123 9.6C80.9123 10.4547 80.7409 11.1722 80.4254 11.7781L82.1992 12.7019C82.6837 11.7718 82.9123 10.7293 82.9123 9.6H80.9123ZM80.4217 11.7852C80.1224 12.3714 79.7003 12.8234 79.1418 13.1585L80.1708 14.8735C81.0524 14.3446 81.7342 13.6126 82.2029 12.6948L80.4217 11.7852ZM79.1333 13.1637C78.6081 13.4859 77.9706 13.664 77.1843 13.664V15.664C78.286 15.664 79.2965 15.4101 80.1793 14.8683L79.1333 13.1637ZM77.1843 13.664C76.3791 13.664 75.7222 13.4845 75.1788 13.1585L74.1498 14.8735C75.0465 15.4115 76.0695 15.664 77.1843 15.664V13.664ZM75.1873 13.1637C74.6401 12.8279 74.2102 12.3702 73.8912 11.7704L72.1254 12.7096C72.6064 13.6138 73.2805 14.3401 74.1413 14.8683L75.1873 13.1637ZM73.9027 11.7928C73.5982 11.1837 73.4323 10.4609 73.4323 9.6H71.4323C71.4323 10.7231 71.6504 11.7603 72.1139 12.6872L73.9027 11.7928ZM67.1363 9.6C67.1363 11.0088 67.3715 12.3276 67.8549 13.545L69.7137 12.807C69.3331 11.8484 69.1363 10.7832 69.1363 9.6H67.1363ZM67.8596 13.5567C68.3559 14.7619 69.0521 15.818 69.9492 16.7151L71.3634 15.3009C70.6605 14.598 70.1088 13.7661 69.709 12.7952L67.8596 13.5567ZM69.9562 16.7221C70.8693 17.6173 71.9407 18.3117 73.1603 18.8066L73.9123 16.9534C72.9239 16.5523 72.0753 15.9987 71.3564 15.2939L69.9562 16.7221ZM73.1719 18.8112C74.4052 19.2938 75.7465 19.528 77.1843 19.528V17.528C75.9661 17.528 74.8755 17.3302 73.9007 16.9488L73.1719 18.8112ZM77.1843 19.528C78.6077 19.528 79.9408 19.2933 81.1727 18.8112L80.4439 16.9488C79.4678 17.3307 78.3849 17.528 77.1843 17.528V19.528ZM81.1843 18.8066C82.4056 18.311 83.4719 17.6147 84.3714 16.7151L82.9572 15.3009C82.2568 16.0013 81.4191 16.553 80.4323 16.9534L81.1843 18.8066ZM84.3644 16.7221C85.2826 15.8219 85.9835 14.7595 86.4657 13.545L84.6069 12.807C84.2251 13.7685 83.6781 14.5941 82.9642 15.2939L84.3644 16.7221ZM86.461 13.5567C86.9635 12.3363 87.2083 11.0133 87.2083 9.6H85.2083C85.2083 10.7787 85.0051 11.8397 84.6116 12.7952L86.461 13.5567ZM87.2083 9.6C87.2083 8.18691 86.9636 6.86991 86.459 5.66241L84.6136 6.43359C85.005 7.37009 85.2083 8.42109 85.2083 9.6H87.2083ZM86.459 5.66241C85.9596 4.46747 85.2506 3.42438 84.3331 2.5429L82.9475 3.9851C83.662 4.67162 84.217 5.48453 84.6136 6.43359L86.459 5.66241ZM84.3331 2.5429C83.4153 1.66104 82.3382 0.989923 81.1129 0.528229L80.4077 2.39977C81.3904 2.77007 82.2333 3.29896 82.9475 3.9851L84.3331 2.5429ZM81.1293 0.534583C79.9119 0.0512037 78.5931 -0.184 77.1843 -0.184V1.816C78.3675 1.816 79.4327 2.0128 80.3913 2.39342L81.1293 0.534583ZM77.1843 -0.184C75.7896 -0.184 74.473 0.0518131 73.2439 0.532757L73.9727 2.39524C74.9516 2.01219 76.019 1.816 77.1843 1.816V-0.184ZM73.2557 0.528229C72.0304 0.989923 70.9533 1.66104 70.0355 2.5429L71.4211 3.9851C72.1353 3.29896 72.9782 2.77007 73.9609 2.39977L73.2557 0.528229ZM70.0355 2.5429C69.1207 3.42184 68.4056 4.46098 67.8906 5.65078L69.726 6.44522C70.139 5.49102 70.704 4.67416 71.4211 3.9851L70.0355 2.5429ZM67.8856 5.66241C67.381 6.86991 67.1363 8.18691 67.1363 9.6H69.1363C69.1363 8.42109 69.3396 7.37009 69.731 6.43359L67.8856 5.66241ZM100.399 1.2V0.199999H99.3993V1.2H100.399ZM100.399 10.656L99.7352 11.4037L101.399 12.8817V10.656H100.399ZM88.8073 0.36L89.4713 -0.387666L87.8073 -1.8657V0.36H88.8073ZM88.8073 18H87.8073V19H88.8073V18ZM92.6953 18V19H93.6953V18H92.6953ZM92.6953 8.544L93.3586 7.79565L91.6953 6.32136V8.544H92.6953ZM104.311 18.84L103.648 19.5883L105.311 21.0626V18.84H104.311ZM104.311 1.2H105.311V0.199999H104.311V1.2ZM99.3993 1.2V10.656H101.399V1.2H99.3993ZM101.063 9.90833L89.4713 -0.387666L88.1432 1.10767L99.7352 11.4037L101.063 9.90833ZM87.8073 0.36V18H89.8073V0.36H87.8073ZM88.8073 19H92.6953V17H88.8073V19ZM93.6953 18V8.544H91.6953V18H93.6953ZM92.0319 9.29235L103.648 19.5883L104.975 18.0917L93.3586 7.79565L92.0319 9.29235ZM105.311 18.84V1.2H103.311V18.84H105.311ZM104.311 0.199999H100.399V2.2H104.311V0.199999ZM118.081 9.648H117.081V10.648H118.081V9.648ZM124.297 9.168L124.639 10.1078L124.648 10.1043L124.297 9.168ZM126.409 7.728L125.646 7.08206L125.641 7.08783L125.636 7.09368L126.409 7.728ZM126.409 3.096L125.628 3.72069L125.637 3.73144L125.646 3.74194L126.409 3.096ZM124.297 1.68L123.956 2.61979L123.966 2.6235L123.976 2.62698L124.297 1.68ZM115.057 1.2V0.199999H114.057V1.2H115.057ZM115.057 18H114.057V19H115.057V18ZM125.089 17.52L125.401 18.4702L125.408 18.4679L125.415 18.4655L125.089 17.52ZM127.345 15.984L126.561 15.3638L126.556 15.3694L126.552 15.3752L127.345 15.984ZM127.585 11.112L126.73 11.6298L126.738 11.6431L126.746 11.6562L127.585 11.112ZM126.097 9.624L125.558 10.4659L125.565 10.4708L125.573 10.4757L126.097 9.624ZM118.081 8.496V7.496H117.081V8.496H118.081ZM118.081 10.704H117.081V11.704H118.081V10.704ZM122.257 10.824L122.015 11.7941L122.042 11.801L122.07 11.8063L122.257 10.824ZM123.145 11.16L123.675 10.312V10.312L123.145 11.16ZM123.745 11.784L122.874 12.2743L123.745 11.784ZM123.577 13.992L122.796 13.3673L122.792 13.3724L123.577 13.992ZM122.593 14.664L122.887 15.6198L122.904 15.6147L122.92 15.609L122.593 14.664ZM119.113 14.856H118.113V15.856H119.113V14.856ZM119.113 4.344V3.344H118.113V4.344H119.113ZM122.425 4.776L121.825 5.576V5.576L122.425 4.776ZM122.737 7.056L123.561 7.62253L123.569 7.611L123.577 7.59925L122.737 7.056ZM121.969 7.656L121.575 6.73685L121.567 6.74039L121.559 6.74408L121.969 7.656ZM118.081 7.872V6.872H117.081V7.872H118.081ZM118.081 10.648H121.225V8.648H118.081V10.648ZM121.225 10.648C122.482 10.648 123.626 10.4761 124.639 10.1078L123.956 8.22821C123.208 8.4999 122.304 8.648 121.225 8.648V10.648ZM124.648 10.1043C125.678 9.71806 126.54 9.14566 127.182 8.36232L125.636 7.09368C125.255 7.55834 124.708 7.94594 123.946 8.23167L124.648 10.1043ZM127.173 8.37394C127.866 7.55501 128.201 6.56899 128.201 5.472H126.201C126.201 6.13501 126.009 6.65298 125.646 7.08206L127.173 8.37394ZM128.201 5.472C128.201 4.31886 127.879 3.28518 127.173 2.45006L125.646 3.74194C125.995 4.15482 126.201 4.70514 126.201 5.472H128.201ZM127.19 2.4713C126.541 1.66029 125.667 1.08868 124.619 0.733021L123.976 2.62698C124.72 2.87932 125.253 3.25171 125.628 3.72069L127.19 2.4713ZM124.639 0.740207C123.626 0.371899 122.482 0.199999 121.225 0.199999V2.2C122.304 2.2 123.208 2.3481 123.956 2.61979L124.639 0.740207ZM121.225 0.199999H115.057V2.2H121.225V0.199999ZM114.057 1.2V18H116.057V1.2H114.057ZM115.057 19H121.633V17H115.057V19ZM121.633 19C123.038 19 124.3 18.8312 125.401 18.4702L124.778 16.5698C123.927 16.8488 122.885 17 121.633 17V19ZM125.415 18.4655C126.54 18.078 127.47 17.4641 128.139 16.5928L126.552 15.3752C126.165 15.8799 125.59 16.29 124.764 16.5745L125.415 18.4655ZM128.13 16.6042C128.848 15.6957 129.161 14.5539 129.161 13.272H127.161C127.161 14.2301 126.93 14.8963 126.561 15.3638L128.13 16.6042ZM129.161 13.272C129.161 12.2703 128.933 11.352 128.424 10.5678L126.746 11.6562C127.006 12.056 127.161 12.5777 127.161 13.272H129.161ZM128.441 10.5942C127.988 9.84585 127.376 9.23702 126.621 8.77234L125.573 10.4757C126.066 10.779 126.447 11.1622 126.73 11.6298L128.441 10.5942ZM126.637 8.78212C125.91 8.31612 125.106 7.98537 124.233 7.78527L123.786 9.73473C124.449 9.88663 125.037 10.1319 125.558 10.4659L126.637 8.78212ZM124.233 7.78527C123.389 7.59189 122.522 7.496 121.633 7.496V9.496C122.377 9.496 123.094 9.57611 123.786 9.73473L124.233 7.78527ZM121.633 7.496H118.081V9.496H121.633V7.496ZM117.081 8.496V10.704H119.081V8.496H117.081ZM118.081 11.704H121.177V9.704H118.081V11.704ZM121.177 11.704C121.512 11.704 121.789 11.7376 122.015 11.7941L122.5 9.85386C122.086 9.75036 121.642 9.704 121.177 9.704V11.704ZM122.07 11.8063C122.301 11.8502 122.477 11.9218 122.615 12.008L123.675 10.312C123.301 10.0782 122.886 9.92577 122.444 9.84166L122.07 11.8063ZM122.615 12.008C122.733 12.0818 122.814 12.1684 122.874 12.2743L124.617 11.2937C124.388 10.8876 124.069 10.5582 123.675 10.312L122.615 12.008ZM122.874 12.2743C122.918 12.3535 122.961 12.4817 122.961 12.696H124.961C124.961 12.2063 124.86 11.7265 124.617 11.2937L122.874 12.2743ZM122.961 12.696C122.961 13.0875 122.87 13.2752 122.796 13.3673L124.358 14.6167C124.796 14.0688 124.961 13.3925 124.961 12.696H122.961ZM122.792 13.3724C122.686 13.5067 122.527 13.6287 122.266 13.719L122.92 15.609C123.492 15.4113 123.988 15.0853 124.362 14.6116L122.792 13.3724ZM122.299 13.7082C121.996 13.8014 121.626 13.856 121.177 13.856V15.856C121.784 15.856 122.358 15.7826 122.887 15.6198L122.299 13.7082ZM121.177 13.856H119.113V15.856H121.177V13.856ZM120.113 14.856V4.344H118.113V14.856H120.113ZM119.113 5.344H120.793V3.344H119.113V5.344ZM120.793 5.344C121.378 5.344 121.678 5.46588 121.825 5.576L123.025 3.976C122.404 3.51012 121.617 3.344 120.793 3.344V5.344ZM121.825 5.576C121.906 5.63638 122.001 5.73999 122.001 6.072H124.001C124.001 5.25201 123.713 4.49162 123.025 3.976L121.825 5.576ZM122.001 6.072C122.001 6.29951 121.951 6.43056 121.898 6.51275L123.577 7.59925C123.876 7.13744 124.001 6.61249 124.001 6.072H122.001ZM121.913 6.48947C121.862 6.56384 121.769 6.65399 121.575 6.73685L122.363 8.57514C122.842 8.37001 123.26 8.06016 123.561 7.62253L121.913 6.48947ZM121.559 6.74408C121.402 6.81451 121.159 6.872 120.793 6.872V8.872C121.355 8.872 121.896 8.78548 122.38 8.56792L121.559 6.74408ZM120.793 6.872H118.081V8.872H120.793V6.872ZM117.081 7.872V9.648H119.081V7.872H117.081ZM130.875 1.2V0.199999H129.875V1.2H130.875ZM131.379 15.24L130.46 15.6339L130.463 15.6418L130.466 15.6496L131.379 15.24ZM132.819 17.184L132.175 17.9489L132.185 17.958L132.197 17.9668L132.819 17.184ZM134.979 18.312L135.278 17.3579L134.979 18.312ZM140.259 18.312L139.965 17.3562L139.959 17.3579L140.259 18.312ZM142.419 17.184L143.051 17.9589L143.053 17.9571L142.419 17.184ZM143.859 15.24L142.946 14.8304L142.943 14.8382L142.94 14.8461L143.859 15.24ZM144.387 1.2H145.387V0.199999H144.387V1.2ZM140.331 1.2V0.199999H139.331V1.2H140.331ZM139.659 14.256L140.421 14.903L139.659 14.256ZM135.603 14.256L134.84 14.903L135.603 14.256ZM134.931 1.2H135.931V0.199999H134.931V1.2ZM129.875 1.2V12.48H131.875V1.2H129.875ZM129.875 12.48C129.875 13.6401 130.059 14.6996 130.46 15.6339L132.298 14.8461C132.026 14.2124 131.875 13.4319 131.875 12.48H129.875ZM130.466 15.6496C130.875 16.5593 131.443 17.3324 132.175 17.9489L133.463 16.4191C132.979 16.0116 132.587 15.4887 132.291 14.8304L130.466 15.6496ZM132.197 17.9668C132.924 18.5447 133.755 18.9761 134.679 19.2661L135.278 17.3579C134.571 17.1359 133.962 16.8153 133.441 16.4012L132.197 17.9668ZM134.679 19.2661C135.602 19.5555 136.584 19.696 137.619 19.696V17.696C136.766 17.696 135.988 17.5805 135.278 17.3579L134.679 19.2661ZM137.619 19.696C138.654 19.696 139.636 19.5555 140.558 19.2661L139.959 17.3579C139.25 17.5805 138.472 17.696 137.619 17.696V19.696ZM140.553 19.2678C141.495 18.978 142.333 18.5449 143.051 17.9589L141.787 16.4091C141.289 16.8151 140.687 17.134 139.965 17.3562L140.553 19.2678ZM143.053 17.9571C143.808 17.3376 144.382 16.5567 144.778 15.6339L142.94 14.8461C142.663 15.4913 142.277 16.0064 141.784 16.4109L143.053 17.9571ZM144.771 15.6496C145.193 14.7108 145.387 13.6457 145.387 12.48H143.387C143.387 13.4263 143.229 14.2012 142.946 14.8304L144.771 15.6496ZM145.387 12.48V1.2H143.387V12.48H145.387ZM144.387 0.199999H140.331V2.2H144.387V0.199999ZM139.331 1.2V12.192H141.331V1.2H139.331ZM139.331 12.192C139.331 12.8583 139.159 13.2998 138.896 13.609L140.421 14.903C141.055 14.1562 141.331 13.2217 141.331 12.192H139.331ZM138.896 13.609C138.694 13.8471 138.336 14.048 137.619 14.048V16.048C138.725 16.048 139.727 15.7209 140.421 14.903L138.896 13.609ZM137.619 14.048C136.924 14.048 136.571 13.851 136.365 13.609L134.84 14.903C135.531 15.717 136.522 16.048 137.619 16.048V14.048ZM136.365 13.609C136.103 13.2998 135.931 12.8583 135.931 12.192H133.931C133.931 13.2217 134.207 14.1562 134.84 14.903L136.365 13.609ZM135.931 12.192V1.2H133.931V12.192H135.931ZM134.931 0.199999H130.875V2.2H134.931V0.199999ZM149.671 12.096L150.546 11.6123L150.001 10.6258L149.086 11.2846L149.671 12.096ZM146.839 14.136L146.254 13.3246L145.575 13.8139L145.937 14.5687L146.839 14.136ZM148.447 16.344L147.748 17.0594L148.447 16.344ZM150.871 17.952L150.475 18.8703L150.485 18.8744L150.494 18.8783L150.871 17.952ZM156.199 18.168L155.913 17.2096L155.901 17.2133L155.889 17.2173L156.199 18.168ZM158.191 17.16L157.587 16.3625L157.577 16.3706L158.191 17.16ZM159.583 15.504L158.697 15.04L158.693 15.0481L159.583 15.504ZM159.775 11.352L158.85 11.7327L159.775 11.352ZM158.839 9.912L158.104 10.5903L158.111 10.5978L158.118 10.6051L158.839 9.912ZM157.495 8.856L156.984 9.71585L156.994 9.72183L157.005 9.72758L157.495 8.856ZM155.839 8.064L156.193 7.12871L156.18 7.1238L156.167 7.11924L155.839 8.064ZM153.823 7.296L153.419 8.21097L153.429 8.21515L153.823 7.296ZM152.551 6.504L151.844 7.21111L151.853 7.22066L151.863 7.22995L152.551 6.504ZM152.575 4.584L153.195 5.36888L153.207 5.35909L153.219 5.34891L152.575 4.584ZM155.095 4.464L154.663 5.36613L154.687 5.37721L154.71 5.38708L155.095 4.464ZM156.127 5.16L155.42 5.86711L155.438 5.8857L155.458 5.90329L156.127 5.16ZM156.967 6.192L156.109 6.7065L156.608 7.53752L157.454 7.0652L156.967 6.192ZM160.063 4.464L160.55 5.3372L161.385 4.87148L160.957 4.01679L160.063 4.464ZM158.815 2.76L158.098 3.45678L158.815 2.76ZM156.751 1.368L156.34 2.27961L156.346 2.28253L156.751 1.368ZM150.871 1.392L151.257 2.31462L151.265 2.31114L150.871 1.392ZM148.759 3.024L147.952 2.43264L147.948 2.43852L147.944 2.44448L148.759 3.024ZM148.447 7.728L147.557 8.18483L147.562 8.19476L148.447 7.728ZM149.599 9.216L148.931 9.96057L148.939 9.96706L148.946 9.97341L149.599 9.216ZM151.063 10.2L150.616 11.0945L150.627 11.0998L151.063 10.2ZM152.455 10.8L152.804 9.86286L152.794 9.85911L152.455 10.8ZM154.423 11.616L153.987 12.5162L154.423 11.616ZM155.503 12.384L154.731 13.0197L154.74 13.0312L154.75 13.0425L155.503 12.384ZM155.263 14.64L155.863 15.44L155.873 15.4322L155.884 15.424L155.263 14.64ZM152.191 14.712L151.755 15.6122L151.766 15.6175L152.191 14.712ZM150.799 13.68L150.066 14.3605L150.072 14.3674L150.079 14.3741L150.799 13.68ZM149.086 11.2846L146.254 13.3246L147.423 14.9474L150.255 12.9074L149.086 11.2846ZM145.937 14.5687C146.376 15.4826 146.984 16.3126 147.748 17.0594L149.146 15.6286C148.534 15.0314 148.07 14.3894 147.74 13.7033L145.937 14.5687ZM147.748 17.0594C148.528 17.8213 149.44 18.4243 150.475 18.8703L151.267 17.0337C150.445 16.6797 149.742 16.2107 149.146 15.6286L147.748 17.0594ZM150.494 18.8783C151.566 19.3142 152.711 19.528 153.919 19.528V17.528C152.951 17.528 152.064 17.3578 151.248 17.0257L150.494 18.8783ZM153.919 19.528C154.807 19.528 155.672 19.3918 156.509 19.1187L155.889 17.2173C155.254 17.4242 154.599 17.528 153.919 17.528V19.528ZM156.484 19.1264C157.346 18.8696 158.124 18.4792 158.805 17.9494L157.577 16.3706C157.106 16.7368 156.555 17.0184 155.913 17.2096L156.484 19.1264ZM158.794 17.9574C159.505 17.4193 160.068 16.7508 160.473 15.9599L158.693 15.0481C158.426 15.5692 158.06 16.0047 157.587 16.3626L158.794 17.9574ZM160.469 15.968C160.904 15.1367 161.111 14.2143 161.111 13.224H159.111C159.111 13.9297 158.966 14.5273 158.697 15.04L160.469 15.968ZM161.111 13.224C161.111 12.4145 160.982 11.6573 160.7 10.9713L158.85 11.7327C159.016 12.1347 159.111 12.6255 159.111 13.224H161.111ZM160.7 10.9713C160.429 10.3136 160.048 9.72708 159.56 9.21889L158.118 10.6051C158.429 10.9289 158.673 11.3024 158.85 11.7327L160.7 10.9713ZM159.574 9.23372C159.116 8.73804 158.585 8.32173 157.985 7.98442L157.005 9.72758C157.429 9.96627 157.794 10.254 158.104 10.5903L159.574 9.23372ZM158.005 7.99615C157.44 7.66071 156.836 7.37198 156.193 7.12871L155.485 8.99928C156.026 9.20402 156.525 9.44329 156.984 9.71585L158.005 7.99615ZM156.167 7.11924C155.398 6.85243 154.749 6.6049 154.217 6.37685L153.429 8.21515C154.017 8.4671 154.712 8.73157 155.511 9.00876L156.167 7.11924ZM154.227 6.38108C153.747 6.16951 153.433 5.96173 153.239 5.77805L151.863 7.22995C152.277 7.62227 152.811 7.94249 153.419 8.21092L154.227 6.38108ZM153.258 5.79689C153.145 5.6838 153.119 5.59745 153.119 5.496H151.119C151.119 6.16255 151.381 6.7482 151.844 7.21111L153.258 5.79689ZM153.119 5.496C153.119 5.45414 153.126 5.4411 153.127 5.43921C153.129 5.43578 153.142 5.41059 153.195 5.36888L151.955 3.79912C151.426 4.21723 151.119 4.80382 151.119 5.496H153.119ZM153.219 5.34891C153.277 5.30022 153.451 5.2 153.895 5.2V3.2C153.187 3.2 152.481 3.35578 151.931 3.81909L153.219 5.34891ZM153.895 5.2C154.187 5.2 154.438 5.25834 154.663 5.36613L155.526 3.56187C155.016 3.31766 154.467 3.2 153.895 3.2V5.2ZM154.71 5.38708C154.97 5.49515 155.205 5.65231 155.42 5.86711L156.834 4.45289C156.441 4.05969 155.988 3.75285 155.479 3.54092L154.71 5.38708ZM155.458 5.90329C155.698 6.11951 155.916 6.38462 156.109 6.7065L157.824 5.6775C157.537 5.19938 157.196 4.77649 156.796 4.41671L155.458 5.90329ZM157.454 7.0652L160.55 5.3372L159.576 3.5908L156.48 5.3188L157.454 7.0652ZM160.957 4.01679C160.615 3.33193 160.133 2.68175 159.532 2.06321L158.098 3.45678C158.585 3.95825 158.935 4.44407 159.168 4.91121L160.957 4.01679ZM159.532 2.06321C158.885 1.39737 158.086 0.864877 157.155 0.453465L156.346 2.28253C157.08 2.60712 157.656 3.00263 158.098 3.45678L159.532 2.06321ZM157.162 0.456413C156.189 0.017436 155.074 -0.184 153.847 -0.184V1.816C154.86 1.816 155.681 1.98256 156.34 2.27959L157.162 0.456413ZM153.847 -0.184C152.639 -0.184 151.511 0.0296345 150.477 0.472855L151.265 2.31114C152.023 1.98636 152.879 1.816 153.847 1.816V-0.184ZM150.485 0.469419C149.449 0.902567 148.595 1.55599 147.952 2.43264L149.565 3.61536C149.978 3.05201 150.532 2.61743 151.257 2.31458L150.485 0.469419ZM147.944 2.44448C147.297 3.35421 146.991 4.4189 146.991 5.592H148.991C148.991 4.7811 149.197 4.13379 149.574 3.60352L147.944 2.44448ZM146.991 5.592C146.991 6.54397 147.165 7.4205 147.557 8.1848L149.336 7.27119C149.121 6.85149 148.991 6.30403 148.991 5.592H146.991ZM147.562 8.19476C147.919 8.87068 148.375 9.462 148.931 9.96057L150.266 8.47143C149.895 8.138 149.583 7.73731 149.331 7.26124L147.562 8.19476ZM148.946 9.97341C149.468 10.4236 150.025 10.7989 150.616 11.0944L151.51 9.30557C151.077 9.08906 150.658 8.80835 150.252 8.45859L148.946 9.97341ZM150.627 11.0998C151.175 11.3659 151.673 11.5814 152.116 11.7409L152.794 9.85911C152.437 9.73059 152.006 9.54611 151.499 9.30019L150.627 11.0998ZM152.106 11.7371C152.907 12.0356 153.531 12.2953 153.987 12.5162L154.858 10.7158C154.323 10.4567 153.635 10.1724 152.804 9.86292L152.106 11.7371ZM153.987 12.5162C154.419 12.725 154.636 12.9042 154.731 13.0197L156.275 11.7483C155.922 11.3198 155.419 10.9869 154.858 10.7158L153.987 12.5162ZM154.75 13.0425C154.775 13.0712 154.839 13.1589 154.839 13.416H156.839C156.839 12.8091 156.678 12.2088 156.255 11.7255L154.75 13.0425ZM154.839 13.416C154.839 13.6385 154.774 13.7514 154.642 13.856L155.884 15.424C156.519 14.9206 156.839 14.2175 156.839 13.416H154.839ZM154.663 13.84C154.489 13.9704 154.226 14.072 153.799 14.072V16.072C154.556 16.072 155.269 15.8856 155.863 15.44L154.663 13.84ZM153.799 14.072C153.387 14.072 152.996 13.9849 152.615 13.8065L151.766 15.6175C152.41 15.9191 153.091 16.072 153.799 16.072V14.072ZM152.626 13.8118C152.249 13.6294 151.879 13.3599 151.519 12.9859L150.079 14.3741C150.582 14.8961 151.14 15.3146 151.755 15.6122L152.626 13.8118ZM151.532 12.9995C151.178 12.6185 150.848 12.1586 150.546 11.6123L148.796 12.5797C149.166 13.2493 149.588 13.8455 150.066 14.3605L151.532 12.9995Z" fill="black"/>
</svg>
